<svg xmlns="http://www.w3.org/2000/svg" width="100" height="100" viewBox="0 0 100 100">
  <defs>
    <style>
      .cls-1 {
        fill: #fb740b;
        fill-rule: evenodd;
      }
    </style>
  </defs>
  <g id="Artboard_1" data-name="Artboard 1">
    <path id="Forma_1" data-name="Forma 1" class="cls-1" d="M83.484,37.037a9.519,9.519,0,0,0-5.71,1.852h0a9.3,9.3,0,0,0-9.516-9.259,10.518,10.518,0,0,0-6.471,2.222,9.383,9.383,0,0,0-8.755-5.926,9.519,9.519,0,0,0-5.71,1.852V9.259A9.3,9.3,0,0,0,37.807,0a9.3,9.3,0,0,0-9.516,9.259V42.222C20.678,35.556,12.3,30.37,6.975,35.556c-7.613,7.407,8.374,21.852,20.555,43.7C36.284,94.444,48.465,100,60.645,100,78.536,100,93,85.926,93,68.519V46.3A9.3,9.3,0,0,0,83.484,37.037Zm5.71,17.407V68.519c0,14.444-12.942,27.778-28.548,27.778-14.464,0-22.839-7.778-29.69-18.519C16.11,53.333,5.452,42.222,9.639,38.148S24.1,42.963,32.1,51.111V9.259a5.712,5.712,0,0,1,11.419,0V48.148h3.806V35.185a5.712,5.712,0,0,1,11.419,0v9.259h3.806V38.889a5.712,5.712,0,0,1,11.419,0v9.259h3.807V46.3a5.712,5.712,0,0,1,11.419,0v8.148Z"/>
  </g>
</svg>
