<svg xmlns="http://www.w3.org/2000/svg" width="100" height="100" viewBox="0 0 100 100">
  <defs>
    <style>
      .cls-1 {
        fill: #fb740b;
        fill-rule: evenodd;
      }
    </style>
  </defs>
  <g id="Artboard_1" data-name="Artboard 1">
    <path id="Forma_1" data-name="Forma 1" class="cls-1" d="M81.717,33.283a10.592,10.592,0,0,0,1.97-2.717,1.768,1.768,0,0,0-3.156-1.594,7.062,7.062,0,1,1,.1-6.166,1.768,1.768,0,0,0,3.207-1.488A10.608,10.608,0,1,0,81.717,33.283ZM63.133,70.24a29.614,29.614,0,0,0-.3-4.919A72.441,72.441,0,0,0,79.842,52.657C94.128,38.371,101.56,19.378,99.724,1.85A1.767,1.767,0,0,0,98.15.276C80.622-1.56,61.629,5.873,47.343,20.158A72.453,72.453,0,0,0,34.679,37.166a29.616,29.616,0,0,0-4.919-.3c-4.511.116-7.952,1.328-10.227,3.6L0.47,59.532a1.768,1.768,0,0,0,1.25,3.018H27.278a52.03,52.03,0,0,0,.108,7.565l-8.01,8.01a1.768,1.768,0,0,0,2.5,2.5l8.01-8.01a52.057,52.057,0,0,0,7.565.108V98.28a1.768,1.768,0,0,0,3.018,1.25L59.53,80.468C61.805,78.193,63.017,74.752,63.133,70.24ZM5.988,59.014L22.032,42.97c1.995-1.995,5.315-2.5,7.748-2.567a25.6,25.6,0,0,1,3.219.12,61.827,61.827,0,0,0-5.4,18.491H5.988ZM33.239,69.261L49.218,53.282a1.768,1.768,0,0,0-2.5-2.5L30.739,66.761a49.877,49.877,0,0,1,.176-5.483,1.763,1.763,0,0,0,.072-0.5c0-.055,0-0.109-0.008-0.162C32.325,47.15,39,33.5,49.843,22.658,62.988,9.514,80.262,2.483,96.337,3.663c1.18,16.074-5.85,33.349-18.995,46.493C66.5,61,52.85,67.675,39.381,69.022c-0.053-.005-0.107-0.008-0.162-0.008a1.764,1.764,0,0,0-.5.072A49.855,49.855,0,0,1,33.239,69.261Zm7.747,24.751V72.4a61.827,61.827,0,0,0,18.5-5.4c0.316,3.2.185,8.33-2.458,10.973Z"/>
  </g>
</svg>
