<svg xmlns="http://www.w3.org/2000/svg" width="100" height="100" viewBox="0 0 100 100">
  <defs>
    <style>
      .cls-1 {
        fill: #fb740b;
        fill-rule: evenodd;
      }
    </style>
  </defs>
  <g id="Artboard_1" data-name="Artboard 1">
    <path id="Forma_1" data-name="Forma 1" class="cls-1" d="M96.192,28.383L55.614,11.136a14.433,14.433,0,0,0-11.233,0L3.811,28.382h0a6.212,6.212,0,0,0,0,11.457l4.8,2.038a1.474,1.474,0,0,0-.008.149V64.531A4.661,4.661,0,0,0,5.4,68.937a4.609,4.609,0,0,0,1.19,3.091,4.923,4.923,0,0,0-1.473,3.094h0L3.972,87.655A3.058,3.058,0,0,0,4.768,90a3.111,3.111,0,0,0,2.284,1h6.082a3.111,3.111,0,0,0,2.284-1,3.058,3.058,0,0,0,.8-2.346L15.065,75.122a4.923,4.923,0,0,0-1.473-3.094,4.609,4.609,0,0,0,1.19-3.091,4.661,4.661,0,0,0-3.193-4.406V43.145l8.189,3.48a1.467,1.467,0,0,0-.008.149V58.106c0,4.729,3.265,9.1,9.194,12.319C34.608,73.485,42.078,75.17,50,75.17s15.392-1.685,21.035-4.745c5.929-3.215,9.194-7.59,9.194-12.319V46.775a1.464,1.464,0,0,0-.008-0.149L96.189,39.84A6.212,6.212,0,0,0,96.192,28.383ZM13.207,88a0.094,0.094,0,0,1-.074.032H7.052A0.093,0.093,0,0,1,6.978,88a0.092,0.092,0,0,1-.026-0.076L8.1,75.39h0a2,2,0,0,1,3.983,0l1.149,12.534A0.092,0.092,0,0,1,13.207,88ZM10.093,70.619a1.682,1.682,0,1,1,1.7-1.682A1.691,1.691,0,0,1,10.093,70.619ZM77.236,51.774c0,3.838-3.185,7.584-8.738,10.28a1.478,1.478,0,0,0-.686,1.985,1.5,1.5,0,0,0,2,.68,22.761,22.761,0,0,0,7.308-5.341c-0.561,3.13-3.182,6.089-7.522,8.443C64.389,70.646,57.428,72.2,50,72.2s-14.389-1.556-19.6-4.381c-4.325-2.345-6.943-5.292-7.517-8.409a21.834,21.834,0,0,0,6.081,4.681c5.643,3.06,13.114,4.745,21.035,4.745a54.016,54.016,0,0,0,6.569-.4A1.484,1.484,0,1,0,56.2,65.5a50.972,50.972,0,0,1-6.2.375c-7.428,0-14.389-1.556-19.6-4.381-4.925-2.671-7.637-6.12-7.637-9.715V47.895l21.623,9.19a14.432,14.432,0,0,0,11.233,0L77.236,47.9v3.879h0ZM95.01,37.111L54.441,54.354a11.4,11.4,0,0,1-8.875,0L14.56,41.179l28.41-4.9c1.278,1.5,3.882,2.482,7.03,2.482,4.493,0,7.882-2,7.882-4.65s-3.388-4.65-7.882-4.65c-4.081,0-7.25,1.649-7.8,3.938L9.836,38.98a1.515,1.515,0,0,0-.273.075L4.987,37.11a3.253,3.253,0,0,1,0-6l40.57-17.242a11.4,11.4,0,0,1,8.875,0L95.013,31.11A3.254,3.254,0,0,1,95.01,37.111Zm-49.9-3c0-.432,1.681-1.682,4.889-1.682s4.889,1.25,4.889,1.682S53.208,35.793,50,35.793,45.111,34.543,45.111,34.111ZM61.172,67.616a1.517,1.517,0,0,0,.338-0.038c1.129-.259,2.242-0.559,3.307-0.893a1.482,1.482,0,0,0,.976-1.862,1.5,1.5,0,0,0-1.878-.968c-0.99.31-2.025,0.59-3.078,0.831A1.483,1.483,0,0,0,61.172,67.616Z"/>
  </g>
</svg>
