<svg id="Isolation_Mode" data-name="Isolation Mode" xmlns="http://www.w3.org/2000/svg" viewBox="0 0 185 79.93"><defs><style>.cls-1{fill:#e6f0f0;}.cls-2{fill:#fff;}</style></defs><title>cloud-mobile</title><path class="cls-1" d="M225,42.46v58.37H100.35a24.62,24.62,0,0,1,16.82-42.6,16.2,16.2,0,0,1,2.21.1,24.32,24.32,0,0,1,2.71.39V58.14A28.09,28.09,0,0,1,169.24,37.5a26.41,26.41,0,0,1,50.47,4.91,17.49,17.49,0,0,1,2.42-.18A18.32,18.32,0,0,1,225,42.46Z" transform="translate(-40 -20.9)"/><path class="cls-2" d="M179.64,100.83H40A22.37,22.37,0,0,1,61.25,93.7V93.17A25.53,25.53,0,0,1,104,74.41a24,24,0,0,1,15.74-14.17,23.58,23.58,0,0,1,6.55-.91,24,24,0,0,1,23.61,19.5,16,16,0,0,1,18.35,16,16.4,16.4,0,0,1-.25,2.73h0.61A20,20,0,0,1,179.64,100.83Z" transform="translate(-40 -20.9)"/></svg>