<svg id="Isolation_Mode" data-name="Isolation Mode" xmlns="http://www.w3.org/2000/svg" viewBox="0 0 225 100.83"><defs><style>.cls-1{fill:#e6f0f0;}.cls-2{fill:#f5fafa;}.cls-3{fill:#fff;}</style></defs><title>clouds</title><path class="cls-1" d="M225,391.63V450H100.35a24.62,24.62,0,0,1,16.82-42.6c0.75,0,1.48,0,2.21.1a24.32,24.32,0,0,1,2.71.39c0-.19,0-0.38,0-0.58a28.09,28.09,0,0,1,47.15-20.64,26.41,26.41,0,0,1,50.47,4.91,17.49,17.49,0,0,1,2.42-.18A18.32,18.32,0,0,1,225,391.63Z" transform="translate(0 -349.17)"/><path class="cls-2" d="M120.16,414.08a28.27,28.27,0,0,1-25.41,28.14,27,27,0,0,1-2.87.15,28.73,28.73,0,0,1-3-.15A31.84,31.84,0,0,1,86.51,450H0V355.78A41.2,41.2,0,0,1,57,368a20.33,20.33,0,0,1,25.31,19.41,28.29,28.29,0,0,1,37.06,20c0.16,0.63.29,1.27,0.39,1.91A27.7,27.7,0,0,1,120.16,414.08Z" transform="translate(0 -349.17)"/><path class="cls-3" d="M179.64,450H40a22.37,22.37,0,0,1,21.25-7.13c0-.18,0-0.35,0-0.53A25.53,25.53,0,0,1,104,423.58a24,24,0,0,1,15.74-14.17,23.58,23.58,0,0,1,6.55-.91A24,24,0,0,1,149.9,428a16,16,0,0,1,18.35,16,16.4,16.4,0,0,1-.25,2.73c0.2,0,.4,0,0.61,0A20,20,0,0,1,179.64,450Z" transform="translate(0 -349.17)"/></svg>