<svg id="Layer_3" data-name="Layer 3" xmlns="http://www.w3.org/2000/svg" viewBox="0 0 22.53 20"><defs><style>.cls-1{fill:#00a6cc;}</style></defs><title>date</title><path class="cls-1" d="M1040.84,960.79h-20.53a1,1,0,0,1-1-1V943.46a1,1,0,0,1,1-1h20.53a1,1,0,0,1,1,1v16.33a1,1,0,0,1-1,1h0Zm-19.53-2h18.53V944.46h-18.53v14.33h0Z" transform="translate(-1019.31 -940.79)"/><path class="cls-1" d="M1037,946.13a1,1,0,0,1-1-1v-3.33a1,1,0,0,1,2,0v3.33a1,1,0,0,1-1,1h0Z" transform="translate(-1019.31 -940.79)"/><path class="cls-1" d="M1024.26,946.13a1,1,0,0,1-1-1v-3.33a1,1,0,0,1,2,0v3.33a1,1,0,0,1-1,1h0Z" transform="translate(-1019.31 -940.79)"/><path class="cls-1" d="M1040.78,949.36h-20.33a0.5,0.5,0,0,1,0-1h20.33a0.5,0.5,0,0,1,0,1h0Z" transform="translate(-1019.31 -940.79)"/><polygon class="cls-1" points="5.68 10.6 3.74 10.6 3.74 12.54 5.68 12.54 5.68 10.6 5.68 10.6"/><polygon class="cls-1" points="9.04 10.6 7.1 10.6 7.1 12.54 9.04 12.54 9.04 10.6 9.04 10.6"/><polygon class="cls-1" points="12.39 10.6 10.45 10.6 10.45 12.54 12.39 12.54 12.39 10.6 12.39 10.6"/><polygon class="cls-1" points="15.75 10.6 13.81 10.6 13.81 12.54 15.75 12.54 15.75 10.6 15.75 10.6"/><polygon class="cls-1" points="19.11 10.6 17.17 10.6 17.17 12.54 19.11 12.54 19.11 10.6 19.11 10.6"/><polygon class="cls-1" points="5.68 13.72 3.74 13.72 3.74 15.65 5.68 15.65 5.68 13.72 5.68 13.72"/><polygon class="cls-1" points="9.04 13.72 7.1 13.72 7.1 15.65 9.04 15.65 9.04 13.72 9.04 13.72"/><polygon class="cls-1" points="12.39 13.72 10.45 13.72 10.45 15.65 12.39 15.65 12.39 13.72 12.39 13.72"/><polygon class="cls-1" points="15.75 13.72 13.81 13.72 13.81 15.65 15.75 15.65 15.75 13.72 15.75 13.72"/><polygon class="cls-1" points="19.11 13.72 17.17 13.72 17.17 15.65 19.11 15.65 19.11 13.72 19.11 13.72"/></svg>