<svg id="Layer_1" data-name="Layer 1" xmlns="http://www.w3.org/2000/svg" viewBox="0 0 345.13 301.99"><defs><style>.cls-1{fill-rule:evenodd;}</style></defs><title>eye</title><path class="cls-1" d="M644.68,385.83L385.83,644.68h0a21.57,21.57,0,1,1-30.5-30.5h0L614.17,355.31h0a21.57,21.57,0,0,1,30.5,30.51h0ZM500,413.72A86.29,86.29,0,0,0,413.72,500a84.73,84.73,0,0,0,3.2,22.06l-39.5,39.5c-30.88-24.15-50-50.84-50-61.56,0-21.57,77.27-107.85,172.57-107.85a168,168,0,0,1,41.37,5.49l-19.3,19.29A85.55,85.55,0,0,0,500,413.72Zm0,172.57a85.2,85.2,0,0,0,83.08-108.35l39.48-39.5c30.9,24.15,50,50.85,50,61.56,0,21.58-77.27,107.85-172.57,107.85a167.72,167.72,0,0,1-41.37-5.49l19.29-19.29A85.37,85.37,0,0,0,500,586.28Z" transform="translate(-327.43 -349)"/></svg>