<svg xmlns="http://www.w3.org/2000/svg" width="20" height="17" viewBox="0 0 20 17">
  <defs>
    <style>
      .cls-1 {
        fill: #ccc;
        fill-rule: evenodd;
      }
    </style>
  </defs>
  <path id="Rounded_Rectangle_2_copy_2" data-name="Rounded Rectangle 2 copy 2" class="cls-1" d="M51.545,27H68.455A1.545,1.545,0,0,1,70,28.546v0a1.545,1.545,0,0,1-1.546,1.545H51.545A1.545,1.545,0,0,1,50,28.548v0A1.545,1.545,0,0,1,51.545,27Zm-0.014,6.969H68.469a1.531,1.531,0,0,1,0,3.063H51.531A1.531,1.531,0,0,1,51.531,33.969Zm0.014,6.937H68.455A1.546,1.546,0,0,1,70,42.452v0A1.546,1.546,0,0,1,68.455,44H51.545A1.545,1.545,0,0,1,50,42.455v0A1.545,1.545,0,0,1,51.545,40.906Z" transform="translate(-50 -27)"/>
</svg>
