<svg id="Layer_1" data-name="Layer 1" xmlns="http://www.w3.org/2000/svg" viewBox="0 0 113.01 68.14"><defs><style>.cls-1{fill:#eb6711;}</style></defs><title>1</title><path d="M39,30.4l20.1,27,28.6-4.5-2.6,5.8a12,12,0,0,1-8.8,6.9L54.3,70a5.59,5.59,0,0,1-5.6-2.2L29.8,42.1a6,6,0,0,1,.3-7.6l7.3-8.6Z" transform="translate(0 -1.96)"/><path d="M112.1,36.9L75.7,3.7A6.39,6.39,0,0,0,70.6,2L18.2,6.5A2,2,0,0,0,17,9.9l8,7.7,14.4-2.8,23.2,4.7L63.7,21c-19.5-3.1-29.7-.1-33.6,1.6L60,51.4a6.78,6.78,0,0,0,6.5,1.7L111,41.6A2.76,2.76,0,0,0,112.1,36.9Z" transform="translate(0 -1.96)"/><path class="cls-1" d="M66,19.9S42.7,9.8,25.8,15.3a12.5,12.5,0,0,0-8.5,8s-0.5,4.3-8.1,5.8L0,31l5.7,3.9s17-2.2,16.7-10c-0.2-4.5,9.1-14.7,41.9-3.7Z" transform="translate(0 -1.96)"/></svg>