<svg id="Layer_1" data-name="Layer 1" xmlns="http://www.w3.org/2000/svg" viewBox="0 0 421.4 421.4"><defs><style>.cls-1{opacity:0.25;}.cls-2{fill:#4fa4ce;}.cls-3{opacity:0.5;}.cls-4{fill:#fff;}</style></defs><title>just-s</title><g class="cls-1"><circle class="cls-2" cx="210.7" cy="210.7" r="210.7"/></g><g class="cls-3"><circle class="cls-2" cx="210.7" cy="210.7" r="168"/></g><circle class="cls-2" cx="210.7" cy="210.7" r="115.7"/><path class="cls-4" d="M211.15,252.7q26.4,0,26.4-17.4c0-4.8-3.4-8.7-10.1-11.6a64.92,64.92,0,0,0-10.3-3.19c-3.9-1-7.8-2-11.8-3.1s-7.9-2.4-11.8-3.8a42.62,42.62,0,0,1-10.4-5.4,23.92,23.92,0,0,1-10-19.9,27.22,27.22,0,0,1,10-21.8c7.3-6.1,17-9.2,29.2-9.2a87.59,87.59,0,0,1,30.1,5,5.84,5.84,0,0,1,4.2,6,6.77,6.77,0,0,1-1.6,4.3,4.33,4.33,0,0,1-3.5,2,16.2,16.2,0,0,1-5.2-1.2,67.7,67.7,0,0,0-22.5-3.5c-7.8,0-14.2,1.5-19.2,4.4s-7.7,7.3-7.7,12.8c0,5.7,3.3,10.1,10,13a51.72,51.72,0,0,0,10.3,3.5c3.8,0.9,7.8,1.9,11.8,2.9a115.15,115.15,0,0,1,11.8,3.6,38.78,38.78,0,0,1,10.3,5.4c6.6,4.8,10,11.8,10,20.9,0,8.7-3.5,15.7-10.4,21.2-7.2,5.5-16.6,8.3-28.3,8.3a88.79,88.79,0,0,1-36-7.3,7.34,7.34,0,0,1-2.9-2.4,6,6,0,0,1-1.3-4,6.07,6.07,0,0,1,1.7-4.2,4.91,4.91,0,0,1,3.9-1.9,14.36,14.36,0,0,1,5.4,1.4,72.33,72.33,0,0,0,10.7,3.4A76.68,76.68,0,0,0,211.15,252.7Z"/></svg>