<svg id="Layer_1" data-name="Layer 1" xmlns="http://www.w3.org/2000/svg" viewBox="0 0 485.26 410.06"><defs><style>.cls-1{fill:none;stroke:#373737;stroke-linecap:round;stroke-linejoin:round;stroke-width:20px;}</style></defs><title>live-academy</title><path class="cls-1" d="M459.63,412.47H36a20.84,20.84,0,0,1-20.84-20.84V43.25A20.84,20.84,0,0,1,36,22.41H459.63a20.84,20.84,0,0,1,20.84,20.84V391.63A20.84,20.84,0,0,1,459.63,412.47Z" transform="translate(-5.21 -12.41)"/><line class="cls-1" x1="475.26" y1="291.64" x2="10" y2="291.64"/><line class="cls-1" x1="98.35" y1="321.51" x2="98.35" y2="365.13"/><line class="cls-1" x1="55.22" y1="343.32" x2="428.19" y2="343.32"/><path class="cls-1" d="M258.19,129.92s-38.69-46.34-62.37,0c-22.08,43.21,62.37,98.62,62.37,98.62" transform="translate(-5.21 -12.41)"/><path class="cls-1" d="M274.52,115.81c13.37-8.42,32.25-12.87,46,14.12,22.08,43.21-62.37,98.62-62.37,98.62" transform="translate(-5.21 -12.41)"/><path class="cls-1" d="M258.19,129.92a78,78,0,0,1,16.33-14.12" transform="translate(-5.21 -12.41)"/></svg>