<svg id="Layer_3" data-name="Layer 3" xmlns="http://www.w3.org/2000/svg" viewBox="0 0 22 24.08"><defs><style>.cls-1{fill:#00a6cc;}</style></defs><title>password</title><path class="cls-1" d="M304.92,715.23h-18a2,2,0,0,1-2-2V702.57a2,2,0,0,1,2-2h18a2,2,0,0,1,2,2v10.67a2,2,0,0,1-2,2h0Zm-18-12.67v10.67h18V702.57h-18Z" transform="translate(-284.92 -691.15)"/><path class="cls-1" d="M302.34,702.32a1,1,0,0,1-1-1v-2.75a5.42,5.42,0,1,0-10.83,0v2.75a1,1,0,0,1-2,0v-2.75a7.42,7.42,0,1,1,14.83,0v2.75a1,1,0,0,1-1,1h0Z" transform="translate(-284.92 -691.15)"/><path class="cls-1" d="M295.92,704.49a2.08,2.08,0,0,0-1,3.9v2.35h2v-2.34a2.08,2.08,0,0,0-1-3.9h0Z" transform="translate(-284.92 -691.15)"/></svg>