<svg id="Layer_1" data-name="Layer 1" xmlns="http://www.w3.org/2000/svg" viewBox="0 0 34.91 34.91"><defs><style>.cls-1{opacity:0.9;}.cls-2{fill:#414042;}.cls-3{fill:#fff;}</style></defs><title>Play Icon</title><g class="cls-1"><circle class="cls-2" cx="17.45" cy="17.45" r="16.7"/><path class="cls-3" d="M19.27,36.66A17.45,17.45,0,1,1,36.72,19.2,17.47,17.47,0,0,1,19.27,36.66Zm0-33.41a16,16,0,1,0,16,16A16,16,0,0,0,19.27,3.25Z" transform="translate(-1.81 -1.75)"/><path class="cls-3" d="M15.27,29a1.81,1.81,0,0,1-.83-0.19,2.79,2.79,0,0,1-1.23-2.26V11.48a2,2,0,0,1,.94-1.94c1.21-.64,2.92.46,3.25,0.68l10,6.86a2.54,2.54,0,0,1,1.3,2.07,3,3,0,0,1-1.3,2.18c-0.08.05-7.67,5.28-10.25,7A3.43,3.43,0,0,1,15.27,29ZM15,10.84a0.34,0.34,0,0,0-.16,0,0.84,0.84,0,0,0-.14.61v15a1.37,1.37,0,0,0,.41,1,1.47,1.47,0,0,0,1.17-.39c2.57-1.71,10.15-6.93,10.23-7a1.52,1.52,0,0,0,.65-0.95,1.28,1.28,0,0,0-.65-0.83l-10-6.86A3.49,3.49,0,0,0,15,10.84Z" transform="translate(-1.81 -1.75)"/></g></svg>