<svg xmlns="http://www.w3.org/2000/svg" viewBox="0 0 155.69 141.34"><defs><style>.cls-1{isolation:isolate;}.cls-2{opacity:0.2;}.cls-18,.cls-3{fill:#b51f18;}.cls-4{fill:#f3aa43;}.cls-5{fill:#ef893a;}.cls-6{fill:#34a3c2;}.cls-7{fill:#42cdf5;}.cls-8{fill:#3ec1e6;}.cls-9{fill:#f8be49;}.cls-10{fill:#d5e5e6;}.cls-11{fill:#c5d5d6;}.cls-12{fill:#556566;}.cls-13{fill:#fff;}.cls-14{fill:#a5100e;}.cls-15{fill:#850309;}.cls-16{fill:#455556;}.cls-17{fill:#657576;}.cls-18,.cls-19{mix-blend-mode:multiply;}</style></defs><title>rocket</title><g class="cls-1"><g id="Isolation_Mode" data-name="Isolation Mode"><g class="cls-2"><path class="cls-3" d="M128.89,264.75h-1.53a7.65,7.65,0,0,0-.36-1.38l1.32-.76a0.3,0.3,0,0,0,.11-0.39l-0.95-1.63a0.27,0.27,0,0,0-.39-0.11l-1.32.76a7.48,7.48,0,0,0-1-1l0.76-1.33a0.29,0.29,0,0,0-.1-0.39l-1.64-.94a0.29,0.29,0,0,0-.39.1L122.63,259a7.34,7.34,0,0,0-1.39-.37V257.1a0.29,0.29,0,0,0-.28-0.28h-1.89a0.29,0.29,0,0,0-.28.28v1.53a7.12,7.12,0,0,0-1.38.37l-0.76-1.32a0.29,0.29,0,0,0-.39-0.1l-1.64.94a0.29,0.29,0,0,0-.1.39l0.76,1.33a7.48,7.48,0,0,0-1,1l-1.32-.76a0.28,0.28,0,0,0-.39.11l-0.95,1.63a0.29,0.29,0,0,0,.11.39l1.32,0.76a7.68,7.68,0,0,0-.37,1.38h-1.53a0.29,0.29,0,0,0-.28.28v1.88a0.29,0.29,0,0,0,.28.29h1.53a8,8,0,0,0,.37,1.38l-1.32.76a0.29,0.29,0,0,0-.11.39l0.95,1.63a0.3,0.3,0,0,0,.39.11l1.32-.76a7.54,7.54,0,0,0,1,1L114.52,273a0.28,0.28,0,0,0,.1.38l1.64,0.95a0.29,0.29,0,0,0,.39-0.11l0.76-1.32a7.11,7.11,0,0,0,1.38.37v1.53a0.29,0.29,0,0,0,.28.29H121a0.29,0.29,0,0,0,.28-0.29v-1.53a7.33,7.33,0,0,0,1.39-.37l0.76,1.32a0.28,0.28,0,0,0,.39.11l1.64-.95a0.28,0.28,0,0,0,.1-0.38l-0.76-1.32a7.55,7.55,0,0,0,1-1l1.32,0.76a0.29,0.29,0,0,0,.39-0.11l0.95-1.63a0.29,0.29,0,0,0-.11-0.39l-1.32-.76a8,8,0,0,0,.36-1.38h1.53a0.29,0.29,0,0,0,.29-0.29V265A0.28,0.28,0,0,0,128.89,264.75ZM120,272a6,6,0,1,1,6-6A6.05,6.05,0,0,1,120,272Z" transform="translate(-35.54 -250.54)"/><path class="cls-3" d="M139.8,264.63H139a3.63,3.63,0,0,0-.2-0.72l0.7-.41a0.15,0.15,0,0,0,.05-0.2l-0.49-.85a0.15,0.15,0,0,0-.2-0.05l-0.7.4a3.22,3.22,0,0,0-.53-0.53l0.4-.7a0.15,0.15,0,0,0-.05-0.2l-0.85-.49a0.15,0.15,0,0,0-.21.05l-0.4.69a4.25,4.25,0,0,0-.72-0.19v-0.8a0.15,0.15,0,0,0-.15-0.16h-1a0.15,0.15,0,0,0-.15.16v0.8a4.42,4.42,0,0,0-.72.19l-0.4-.69a0.14,0.14,0,0,0-.2-0.05l-0.85.49a0.15,0.15,0,0,0-.06.2l0.41,0.7a3.54,3.54,0,0,0-.53.53l-0.69-.4a0.14,0.14,0,0,0-.2.05l-0.49.85a0.14,0.14,0,0,0,.05.2l0.69,0.41a3.62,3.62,0,0,0-.19.72h-0.8a0.15,0.15,0,0,0-.16.16v1a0.15,0.15,0,0,0,.16.15h0.8a3.75,3.75,0,0,0,.19.72l-0.69.41a0.15,0.15,0,0,0-.05.2l0.49,0.85a0.15,0.15,0,0,0,.2.05l0.69-.4a3.54,3.54,0,0,0,.53.53l-0.41.7a0.15,0.15,0,0,0,.06.2l0.85,0.49a0.14,0.14,0,0,0,.2-0.05l0.4-.69a4.32,4.32,0,0,0,.72.19v0.8a0.15,0.15,0,0,0,.15.16h1a0.15,0.15,0,0,0,.15-0.16v-0.8a4.16,4.16,0,0,0,.72-0.19l0.4,0.69a0.15,0.15,0,0,0,.21.05l0.85-.49A0.15,0.15,0,0,0,138,269l-0.4-.7a3.23,3.23,0,0,0,.53-0.53l0.7,0.4a0.15,0.15,0,0,0,.2-0.05l0.49-.85a0.15,0.15,0,0,0-.05-0.2l-0.7-.41a3.63,3.63,0,0,0,.2-0.72h0.8a0.15,0.15,0,0,0,.15-0.16v-1A0.15,0.15,0,0,0,139.8,264.63ZM135.16,268a2.69,2.69,0,1,1,2.69-2.69A2.69,2.69,0,0,1,135.16,268Z" transform="translate(-35.54 -250.54)"/><circle class="cls-3" cx="99.61" cy="14.73" r="1.53"/><path class="cls-3" d="M131.43,262.1c0.32,0,.51-0.63.49-1.4a4.45,4.45,0,0,0,.95-0.43c0.53,0.58,1.09.88,1.36,0.68s0.11-.86-0.32-1.53a4.81,4.81,0,0,0,.57-0.8c0.77,0.26,1.45.25,1.58-.06s-0.34-.83-1.09-1.2a4.78,4.78,0,0,0,.11-0.93c0.83-.15,1.44-0.52,1.39-0.87s-0.73-.55-1.58-0.48a4.74,4.74,0,0,0-.36-0.85c0.66-.55,1-1.18.8-1.45s-0.91-.11-1.61.38a4.35,4.35,0,0,0-.72-0.58c0.28-.8.28-1.51,0-1.64s-0.83.34-1.2,1.09a4.79,4.79,0,0,0-.95-0.16c-0.16-.8-0.51-1.39-0.85-1.34s-0.53.68-.49,1.47a4.36,4.36,0,0,0-.94.35c-0.53-.58-1.1-0.89-1.36-0.68s-0.13.8,0.28,1.45a4.32,4.32,0,0,0-.68.82c-0.71-.22-1.32-0.18-1.44.11a1.25,1.25,0,0,0,.9,1.09,4.5,4.5,0,0,0-.18,1.09,1.23,1.23,0,0,0-1.13.8,1.21,1.21,0,0,0,1.28.49,4.61,4.61,0,0,0,.43,1,0.78,0.78,0,1,0,.79,1,4.35,4.35,0,0,0,.9.68,1.25,1.25,0,0,0,.14,1.38,1.26,1.26,0,0,0,1.08-.9,4.47,4.47,0,0,0,1.09.11C130.79,261.63,131.12,262.14,131.43,262.1Zm-4.51-5.72a3.63,3.63,0,1,1,3.63,3.63A3.63,3.63,0,0,1,126.92,256.38Z" transform="translate(-35.54 -250.54)"/><path class="cls-3" d="M86.77,320.38a6,6,0,0,0-4.2-9.82H82.09a6,6,0,0,0-4.19,9.82h0s1.46,3.85,1.21,5.4a0.7,0.7,0,0,0-.09.31v0.16a0.67,0.67,0,0,0,.49.65h0a1,1,0,0,1-.32,1.65,0.57,0.57,0,0,1,0,1.14,0.57,0.57,0,0,0,.57.57h0.63a0.23,0.23,0,0,0-.13.16c0,0.27.93,0.49,2.08,0.49s2.08-.22,2.08-0.49a0.23,0.23,0,0,0-.12-0.16h0.63a1.28,1.28,0,0,1,.57-1.71,0.57,0.57,0,0,1,0-1.14,0.57,0.57,0,0,0-.32-0.51h0a0.68,0.68,0,0,0,.48-0.65v-0.16a0.7,0.7,0,0,0-.09-0.31c-0.25-1.55,1.21-5.4,1.21-5.4h0ZM85,316.79l-2.27,9.5-3-9.5H85Z" transform="translate(-35.54 -250.54)"/><path class="cls-3" d="M82.27,309.58a0.64,0.64,0,0,0,.64-0.64v-5a0.64,0.64,0,0,0-1.28,0v5A0.64,0.64,0,0,0,82.27,309.58Z" transform="translate(-35.54 -250.54)"/><path class="cls-3" d="M70,312.1l4.66,1.6a0.64,0.64,0,1,0,.42-1.21l-4.66-1.6A0.64,0.64,0,0,0,70,312.1Z" transform="translate(-35.54 -250.54)"/><path class="cls-3" d="M75.52,317.33a0.64,0.64,0,0,0-.81-0.4L70,318.48a0.64,0.64,0,0,0,.2,1.25,0.64,0.64,0,0,0,.2,0l4.66-1.55A0.64,0.64,0,0,0,75.52,317.33Z" transform="translate(-35.54 -250.54)"/><path class="cls-3" d="M75.81,320.93l-2.69,2.64a0.64,0.64,0,0,0,.9.91l2.69-2.65A0.64,0.64,0,0,0,75.81,320.93Z" transform="translate(-35.54 -250.54)"/><path class="cls-3" d="M77.5,310.38a0.64,0.64,0,0,0,.53.28,0.63,0.63,0,0,0,.36-0.11,0.64,0.64,0,0,0,.17-0.89L75.44,305a0.64,0.64,0,1,0-1.06.71Z" transform="translate(-35.54 -250.54)"/><path class="cls-3" d="M89.42,313.3a0.64,0.64,0,0,0,.61.44,0.63,0.63,0,0,0,.21,0l4.66-1.6a0.64,0.64,0,0,0-.42-1.21l-4.66,1.6A0.64,0.64,0,0,0,89.42,313.3Z" transform="translate(-35.54 -250.54)"/><path class="cls-3" d="M94.89,318.48l-4.66-1.55a0.64,0.64,0,0,0-.4,1.21l4.66,1.55A0.64,0.64,0,1,0,94.89,318.48Z" transform="translate(-35.54 -250.54)"/><path class="cls-3" d="M89.13,320.93a0.64,0.64,0,0,0-.9.91l2.69,2.65a0.65,0.65,0,0,0,.45.18,0.64,0.64,0,0,0,.45-1.1Z" transform="translate(-35.54 -250.54)"/><path class="cls-3" d="M86.91,310.66a0.65,0.65,0,0,0,.53-0.28l3.12-4.63A0.64,0.64,0,1,0,89.5,305l-3.12,4.63a0.64,0.64,0,0,0,.17.89A0.63,0.63,0,0,0,86.91,310.66Z" transform="translate(-35.54 -250.54)"/><path class="cls-3" d="M162.14,274.66a10.1,10.1,0,0,0-9.46-4.89,0.44,0.44,0,0,0,0,.87,9,9,0,0,1,8.19,14.18,0.44,0.44,0,0,0,.59.61,0.43,0.43,0,0,0,.15-0.14A10.1,10.1,0,0,0,162.14,274.66Z" transform="translate(-35.54 -250.54)"/><path class="cls-3" d="M160.38,275.68a8.14,8.14,0,0,0-7.86-3.85,0.44,0.44,0,1,0,.06.87,7,7,0,0,1,6.48,11.22,0.44,0.44,0,0,0,.58.62,0.43,0.43,0,0,0,.14-0.14A8.14,8.14,0,0,0,160.38,275.68Z" transform="translate(-35.54 -250.54)"/><path class="cls-3" d="M157.44,283.46a0.43,0.43,0,0,0,.46,0,0.43,0.43,0,0,0,.14-0.13,5.83,5.83,0,0,0-5.47-9.48,0.44,0.44,0,0,0,.07.87,5,5,0,0,1,4.69,8.12A0.44,0.44,0,0,0,157.44,283.46Z" transform="translate(-35.54 -250.54)"/><path class="cls-3" d="M157.61,285.89h0l-2.46-4.27a2.57,2.57,0,0,0-2.53-4.38l-2.71-4.7a2.28,2.28,0,0,0-3.11-.83,2.26,2.26,0,0,0-.46.36h0l-0.1.11-0.14.16a2.4,2.4,0,0,0-.13.21,2.36,2.36,0,0,0-.13.28c0,0.07-.06.13-0.08,0.2s0,0.12,0,.19,0,0.14,0,.21,0,0.12,0,.19a2.28,2.28,0,0,0,0,.23c0,0.06,0,.12,0,0.17a2.23,2.23,0,0,0,.06.26s0,0.1,0,.15a2.29,2.29,0,0,0,.18.39l2.09,3.62-1.73-3a39,39,0,0,1-6.45,6.55,1.36,1.36,0,0,0-1.52-.24l-3.07,1.77h0l-0.21.13a1.6,1.6,0,0,0-.29,2.2l0.61,1.05a0.52,0.52,0,0,0-.2.06l-1.62.93a0.79,0.79,0,0,0-.14,1.08l2,3.42a0.78,0.78,0,0,0,1,.42l1.61-.93a0.52,0.52,0,0,0,.15-0.15l0.61,1.06a1.6,1.6,0,0,0,2,.85l0.43-.25,2,3.47a1.58,1.58,0,0,0,2,.87l0.18-.11a1.58,1.58,0,0,0,.23-2.17l-2-3.45,0.43-.25a1.07,1.07,0,0,0,.21-0.16l0.05-.07a1.17,1.17,0,0,0,.11-0.14l0.05-.1a1.28,1.28,0,0,0,.07-0.14s0-.09,0-0.14,0-.09,0-0.14a1.58,1.58,0,0,0,0-.16s0-.09,0-0.14,0-.11,0-0.17,0,0,0-.07a39,39,0,0,1,8.9-2.31l0.35,0.61a2.28,2.28,0,1,0,3.95-2.28Zm-6.22-1.65h0l0.9,1.56Z" transform="translate(-35.54 -250.54)"/><path class="cls-3" d="M65.32,350.32L64.87,356h5a0.48,0.48,0,0,0,.48-0.48v-0.64a4.52,4.52,0,0,0-4.52-4.51H65.32Z" transform="translate(-35.54 -250.54)"/><polygon class="cls-3" points="29.73 99.8 29.77 99.78 29.73 99.78 29.73 99.8"/><polygon class="cls-3" points="26.26 99.78 26.23 99.78 26.26 99.79 26.26 99.78"/><path class="cls-3" d="M57.26,356h5.33l-0.83-5.64H61.29a4.52,4.52,0,0,0-4.51,4.51v0.64A0.48,0.48,0,0,0,57.26,356Z" transform="translate(-35.54 -250.54)"/><path class="cls-3" d="M64.48,356l-0.6-4H64.1a0.2,0.2,0,0,0,.19-0.2v-0.48a0.2,0.2,0,0,0-.19-0.2H63.33a0.2,0.2,0,0,0-.19.2v0.48a0.2,0.2,0,0,0,.19.2h0.14l-0.53,4h1.55Z" transform="translate(-35.54 -250.54)"/><path class="cls-3" d="M53.63,369.22l-0.06,0v-4a3.52,3.52,0,0,0-3.21-3.77,3.52,3.52,0,0,0-3.21,3.77v4A1.88,1.88,0,0,0,46,371v0.94a0.94,0.94,0,0,0,.94.94h7a0.94,0.94,0,0,0,.94-0.94V371A1.88,1.88,0,0,0,53.63,369.22Zm-3.35,2.45a2.27,2.27,0,0,1-2-2.38s0-.06,0-0.1a0.53,0.53,0,0,1,0-.09h1v-0.85a3.21,3.21,0,0,1-1.4-2.77,3.73,3.73,0,0,1,.07-0.68v0.07a1.07,1.07,0,0,0,.78-0.41A1.5,1.5,0,0,0,49,364a2.66,2.66,0,0,0,.82.51,1,1,0,0,0,.54.08,0.21,0.21,0,0,1-.08-0.08,1.81,1.81,0,0,1-.26-1,1.58,1.58,0,0,0,.68,1,3.91,3.91,0,0,0,2.13.56,3.83,3.83,0,0,1,0,.46,3.15,3.15,0,0,1-1.57,2.87v0.75h1a0.53,0.53,0,0,1,0,.09s0,0.06,0,.1A2.27,2.27,0,0,1,50.27,371.67Z" transform="translate(-35.54 -250.54)"/><path class="cls-3" d="M72.54,365.24L72.09,368h2.17a3.37,3.37,0,0,1-1-2.47,3.69,3.69,0,0,1,.07-0.68s0,0.07,0,.07a1.07,1.07,0,0,0,.78-0.41,1.49,1.49,0,0,0,.26-0.51,2.66,2.66,0,0,0,.82.51,1,1,0,0,0,.54.08,0.21,0.21,0,0,1-.08-0.08,1.81,1.81,0,0,1-.26-1,1.58,1.58,0,0,0,.68,1,3.91,3.91,0,0,0,2.13.56,3.83,3.83,0,0,1,0,.46,3.37,3.37,0,0,1-1,2.47H79.4L79,365.24A3.25,3.25,0,1,0,72.54,365.24Z" transform="translate(-35.54 -250.54)"/><path class="cls-3" d="M79,369.22a1.84,1.84,0,0,0-.67-0.12H77.7a0.48,0.48,0,0,1,0,.09,2.08,2.08,0,1,1-4.08,0,0.53,0.53,0,0,1,0-.09H73.26A1.88,1.88,0,0,0,71.38,371v0.94a0.94,0.94,0,0,0,.94.94h7a0.94,0.94,0,0,0,.94-0.94V371A1.88,1.88,0,0,0,79,369.22Z" transform="translate(-35.54 -250.54)"/><path class="cls-3" d="M50.42,360.89a0.21,0.21,0,0,0,.21-0.21v-1.28h25v1.28a0.21,0.21,0,1,0,.43,0v-1.5A0.21,0.21,0,0,0,75.8,359H63.75v-2.46a0.21,0.21,0,0,0-.43,0V359H50.42a0.21,0.21,0,0,0-.21.21v1.5A0.21,0.21,0,0,0,50.42,360.89Z" transform="translate(-35.54 -250.54)"/><path class="cls-3" d="M65.51,368.21a3.63,3.63,0,0,0-.58,0H64.59a3.62,3.62,0,0,1,.58,0,0.94,0.94,0,0,1,.08.38h0a1,1,0,0,1-1,1H61.87a1,1,0,0,1-1-1h0a1,1,0,0,1,.09-0.42,3.65,3.65,0,0,0-3.32,3.64v0.52a0.39,0.39,0,0,0,.39.39H68.19a0.39,0.39,0,0,0,.39-0.39v-0.52A3.65,3.65,0,0,0,65.51,368.21Zm1.39,3.93H65.06a0.24,0.24,0,0,1,0-.49H66.9A0.24,0.24,0,1,1,66.9,372.14Z" transform="translate(-35.54 -250.54)"/><path class="cls-3" d="M66,363.73c-0.19-1.75-1.09-3-2.91-2.82a1.92,1.92,0,0,0-1.56-.12c-0.84.25-2.19,3.15-1.13,5.18a0.58,0.58,0,0,0,.23.37,3.06,3.06,0,0,0,.34.39l0-.1a3.3,3.3,0,0,0,.68,1.06,2.35,2.35,0,0,0,.64.47,1.8,1.8,0,0,0,1.66,0,2.27,2.27,0,0,0,.5-0.34,3.29,3.29,0,0,0,.89-1.39s0,0.09,0,.14a2.13,2.13,0,0,0,.13-0.2,0.62,0.62,0,0,0,.35-0.67s0-.06,0-0.09A4.4,4.4,0,0,0,66,363.73Z" transform="translate(-35.54 -250.54)"/><path class="cls-3" d="M60.63,347.53a0.65,0.65,0,0,0,.37.7,2.18,2.18,0,0,0,.14.21l0-.14a3.69,3.69,0,0,0,.64,1.15,2.3,2.3,0,0,0,1.49.87h0.44a2.3,2.3,0,0,0,1.49-.88,3.74,3.74,0,0,0,.66-1.23h0a4,4,0,0,1-.14.4,3.24,3.24,0,0,0,.36-0.42,0.62,0.62,0,0,0,.24-0.39c1.11-2.15-.3-5.2-1.19-5.46a2,2,0,0,0-1.65.13c-1.92-.18-2.87,1.14-3.07,3a4.63,4.63,0,0,0,.21,2S60.63,347.5,60.63,347.53Z" transform="translate(-35.54 -250.54)"/><path class="cls-3" d="M153.58,318.78a4.37,4.37,0,1,0,2.79,3l-4.8,2Z" transform="translate(-35.54 -250.54)"/><path class="cls-3" d="M168.4,307.67l3.81-1,3.39-3.43-3.14,0,0.49-.49,0.77-1.41-1.41.77-0.49.49,0-3.14L168.41,303l-0.92,3.82h0l-2.63,2.66a18.46,18.46,0,1,0,.88.88l2.63-2.67h0Zm0.36,15.21a16.49,16.49,0,1,1-5.26-12L161.39,313a13.53,13.53,0,1,0,.87.88l2.11-2.14A16.39,16.39,0,0,1,168.76,322.88Zm-13.84-3.36a4.34,4.34,0,0,0-1.32-.74l0.7,1.71,0.2-.06,0.54-.15-0.15.53-0.06.2h0l1.5,0.59a4.31,4.31,0,0,0-.56-1.18l1.53-1.55a6.41,6.41,0,1,1-.87-0.89Zm2.87-2.91a8.31,8.31,0,1,0,.87.88l2.23-2.26a11.58,11.58,0,1,1-.87-0.88Z" transform="translate(-35.54 -250.54)"/><path class="cls-3" d="M53.54,320.81H52.59l-0.24,3h3.12A1.24,1.24,0,0,1,56.75,325v6.21H57a0.72,0.72,0,0,1,0,1.44H41.76a0.72,0.72,0,0,1,0-1.44H42v-1.77H38.73a0.27,0.27,0,0,1,0-.54H42V325a1.24,1.24,0,0,1,1.27-1.22h2.66l-0.44-3H44.55a9,9,0,0,0-9,9v1.28a1,1,0,0,0,1,1h4a1.23,1.23,0,0,0,1.22,1.13H57a1.23,1.23,0,0,0,1.22-1.13h3.37a1,1,0,0,0,1-1v-1.28A9,9,0,0,0,53.54,320.81Z" transform="translate(-35.54 -250.54)"/><path class="cls-3" d="M13.34,77.19H14a0.37,0.37,0,0,1,.37.37v0.63a0.36,0.36,0,0,1-.36.36H13.34A0.36,0.36,0,0,1,13,78.18V77.55A0.36,0.36,0,0,1,13.34,77.19Z"/><path class="cls-3" d="M52.17,321h0l0.4-.19H52.5v-1.92h0a4.77,4.77,0,0,1-3.59,1.8,4.66,4.66,0,0,1-3.31-1.5v1.61H45.52l1.32,0.52h0l2.36,1,0.15,0.06-0.71,1.4H50l-0.64-1.41,0.11-.06Z" transform="translate(-35.54 -250.54)"/><path class="cls-3" d="M43.23,313.21h0l0.07,0a2.27,2.27,0,0,1,.65.88l0.32,0.52a7.88,7.88,0,0,1-.09-1,11.67,11.67,0,0,1,.13-2.22,3.94,3.94,0,0,0,.43.64,10.56,10.56,0,0,1,.51-2.25,9.27,9.27,0,0,1,2.46-1.71l-0.36,1c1.23-.29,4.33-2.39,4.54-2.44A6,6,0,0,1,53.16,308a7.36,7.36,0,0,1,1.21,3.42,11.31,11.31,0,0,1,.05,1.75l0.06,0a1.68,1.68,0,0,1,.6,1.45,2.58,2.58,0,0,1-.07.61c2.42-4.63-.65-11.23-2.57-11.81a4.37,4.37,0,0,0-3.56.27c-4.16-.38-6.2,2.45-6.63,6.43a10,10,0,0,0,.45,4.3A1.66,1.66,0,0,1,43.23,313.21Z" transform="translate(-35.54 -250.54)"/><path class="cls-3" d="M43.48,316.15a4.86,4.86,0,0,0,.3.45c0-.1,0-0.21.06-0.31s0-.18,0-0.28l-0.12.08a0.51,0.51,0,0,1-.24.07H43.48Z" transform="translate(-35.54 -250.54)"/><path class="cls-3" d="M54,316.1h0l-0.07.27c-0.11.39-.19,0.62-0.19,0.62a6.93,6.93,0,0,0,.77-0.9,0.52,0.52,0,0,1-.27.09A0.51,0.51,0,0,1,54,316.1Z" transform="translate(-35.54 -250.54)"/><path class="cls-3" d="M60.74,305.62a3.07,3.07,0,0,0-3.07,3.07h2.4a0.66,0.66,0,0,1,.66-0.66,0.65,0.65,0,0,1,.33.1L62,307a0.21,0.21,0,0,1,.32.28l-1,1.16a0.66,0.66,0,0,1,0,.24h2.4A3.06,3.06,0,0,0,60.74,305.62Z" transform="translate(-35.54 -250.54)"/><path class="cls-3" d="M63.72,305.85l0.05-.06,0.21-.34a0.38,0.38,0,0,0-.13-0.52l-0.35-.21a0.38,0.38,0,0,0-.52.13l-0.17.28a4.15,4.15,0,0,0-.82-0.37,0.48,0.48,0,0,0,.23-0.41V304a0.49,0.49,0,0,0-.49-0.49h-2a0.49,0.49,0,0,0-.49.49v0.4a0.48,0.48,0,0,0,.23.41,4.11,4.11,0,0,0-.85.39h0l-0.26-.31a0.38,0.38,0,0,0-.53,0l-0.31.26a0.38,0.38,0,0,0,0,.53l0.25,0.3a4.17,4.17,0,0,0-.39.48c-0.07.1-.13,0.21-0.19,0.31A4.13,4.13,0,1,0,63.72,305.85Zm-3,6.4a3.56,3.56,0,1,1,3.56-3.56A3.57,3.57,0,0,1,60.74,312.25Z" transform="translate(-35.54 -250.54)"/><path class="cls-3" d="M61.33,309l-0.27-.2-0.13-.1-0.05,0a0.21,0.21,0,0,0-.29,0h0l0,0v0a0.23,0.23,0,0,0,0,.09,0.21,0.21,0,0,0,.08.12h0l0.4,0.29,1.52,1.11a0.21,0.21,0,1,0,.25-0.34Z" transform="translate(-35.54 -250.54)"/><path class="cls-4" d="M101.23,319.71C99,341.37,79.11,348.29,79.11,348.29L101.23,374S103.48,298,101.23,319.71Z" transform="translate(-35.54 -250.54)"/><path class="cls-5" d="M102.43,321.06c-2.26,21.67-22.12,28.58-22.12,28.58l22.12,25.73S104.69,299.39,102.43,321.06Z" transform="translate(-35.54 -250.54)"/><path class="cls-4" d="M128.86,319.71c2.26,21.67,22.12,28.59,22.12,28.59L128.86,374S126.61,298,128.86,319.71Z" transform="translate(-35.54 -250.54)"/><path class="cls-5" d="M127.66,321.06c2.26,21.67,22.12,28.58,22.12,28.58l-22.12,25.73S125.4,299.39,127.66,321.06Z" transform="translate(-35.54 -250.54)"/><path class="cls-6" d="M107,308.91c0-.91,0-1.81,0-2.71,0-.28,0-0.55,0-0.83q0-.93,0-1.85c0-.33,0-0.64,0-1q0-.85.06-1.69c0-.31,0-0.62,0-0.93,0-.57.05-1.14,0.09-1.7,0-.29,0-0.58.05-0.86,0-.58.07-1.16,0.11-1.74,0-.27,0-0.52.06-0.79,0-.6.09-1.19,0.14-1.78,0-.22,0-0.44.06-0.66,0.06-.63.11-1.26,0.17-1.88l0-.51c0.06-.67.13-1.34,0.2-2l0-.35q0.12-1.07.24-2.13s0-.1,0-0.15c0.65-5.54,1.46-10.6,2.28-15a29.61,29.61,0,0,1-4.22-.78c-4,9.89-7.86,23.41-7.86,38.33,0,30.29,7.2,54.85,16.09,54.85a5.87,5.87,0,0,0,3.65-1.42,21.9,21.9,0,0,1-3.73-5.78C110.06,345.92,107,328.63,107,308.91Z" transform="translate(-35.54 -250.54)"/><path class="cls-7" d="M122.95,269.6a30.08,30.08,0,0,1-4.38.79,213.73,213.73,0,0,1,3.72,38.51c0,19.72-3.06,37-7.64,46.67a21.9,21.9,0,0,0,3.73,5.78c7.12-5.64,12.43-27.43,12.43-53.44C130.81,293,126.91,279.49,122.95,269.6Z" transform="translate(-35.54 -250.54)"/><path class="cls-8" d="M114.72,270.61a33.85,33.85,0,0,1-4-.23c-0.82,4.39-1.63,9.46-2.29,15,0,0.05,0,.1,0,0.15q-0.12,1.05-.24,2.13l0,0.35c-0.07.66-.14,1.32-0.2,2l0,0.51c-0.06.62-.11,1.25-0.17,1.88,0,0.22,0,.44-0.06.66,0,0.59-.09,1.18-0.14,1.78,0,0.26,0,.52-0.06.79,0,0.58-.08,1.16-0.11,1.74,0,0.29,0,.57-0.05.86,0,0.56-.06,1.13-0.09,1.7,0,0.31,0,.62,0,0.93q0,0.85-.06,1.69c0,0.33,0,.64,0,1,0,0.61,0,1.23,0,1.85,0,0.28,0,.55,0,0.83,0,0.9,0,1.8,0,2.71,0,19.73,3.06,37,7.64,46.67,4.58-9.66,7.64-26.95,7.64-46.67a213.73,213.73,0,0,0-3.72-38.51h0A33.43,33.43,0,0,1,114.72,270.61Z" transform="translate(-35.54 -250.54)"/><path class="cls-5" d="M114.65,253.34c0-.14.06-0.22,0.07-0.25a103,103,0,0,0-8.22,16.51,29.61,29.61,0,0,0,4.22.78C112.47,261,114.26,254.68,114.65,253.34Z" transform="translate(-35.54 -250.54)"/><path class="cls-9" d="M118.57,270.4a30.08,30.08,0,0,0,4.38-.79,102.94,102.94,0,0,0-8.2-16.51v0s0,0.12-.07.25C115,254.68,116.82,261,118.57,270.4Z" transform="translate(-35.54 -250.54)"/><path class="cls-4" d="M110.73,270.38a33.85,33.85,0,0,0,4,.23,33.43,33.43,0,0,0,3.85-.22h0c-1.75-9.38-3.53-15.71-3.92-17.05C114.26,254.68,112.47,261,110.73,270.38Z" transform="translate(-35.54 -250.54)"/><path class="cls-10" d="M108.15,288l0-.35Z" transform="translate(-35.54 -250.54)"/><path class="cls-10" d="M107.9,290.5l0-.51Z" transform="translate(-35.54 -250.54)"/><path class="cls-10" d="M107.67,293c0-.22,0-0.44.06-0.66C107.71,292.6,107.69,292.82,107.67,293Z" transform="translate(-35.54 -250.54)"/><path class="cls-10" d="M107.18,300.85c0-.31,0-0.62,0-0.93C107.21,300.23,107.19,300.54,107.18,300.85Z" transform="translate(-35.54 -250.54)"/><path class="cls-10" d="M107.08,303.51c0-.33,0-0.64,0-1C107.11,302.87,107.09,303.19,107.08,303.51Z" transform="translate(-35.54 -250.54)"/><path class="cls-10" d="M107,306.19c0-.28,0-0.55,0-0.83C107,305.64,107,305.92,107,306.19Z" transform="translate(-35.54 -250.54)"/><path class="cls-10" d="M107.48,295.61c0-.27,0-0.52.06-0.79C107.52,295.09,107.5,295.35,107.48,295.61Z" transform="translate(-35.54 -250.54)"/><path class="cls-10" d="M107.31,298.21c0-.29,0-0.58.05-0.86C107.35,297.64,107.33,297.92,107.31,298.21Z" transform="translate(-35.54 -250.54)"/><path class="cls-10" d="M108.43,285.52s0-.1,0-0.15S108.43,285.47,108.43,285.52Z" transform="translate(-35.54 -250.54)"/><path class="cls-11" d="M107.23,299.91c0-.57.05-1.14,0.09-1.7C107.28,298.78,107.26,299.34,107.23,299.91Z" transform="translate(-35.54 -250.54)"/><path class="cls-11" d="M107.37,297.35c0-.58.07-1.16,0.11-1.74C107.44,296.19,107.4,296.77,107.37,297.35Z" transform="translate(-35.54 -250.54)"/><path class="cls-11" d="M107,305.36c0-.62,0-1.24,0-1.85Q107.06,304.43,107,305.36Z" transform="translate(-35.54 -250.54)"/><path class="cls-11" d="M107.12,302.54q0-.85.06-1.69Q107.15,301.69,107.12,302.54Z" transform="translate(-35.54 -250.54)"/><path class="cls-11" d="M108.19,287.65q0.12-1.07.24-2.13Q108.3,286.57,108.19,287.65Z" transform="translate(-35.54 -250.54)"/><path class="cls-11" d="M107,308.91c0-.91,0-1.81,0-2.71C107,307.09,107,308,107,308.91Z" transform="translate(-35.54 -250.54)"/><path class="cls-11" d="M110.73,270.38c-0.82,4.4-1.63,9.46-2.28,15,0.66-5.54,1.47-10.6,2.29-15h0Z" transform="translate(-35.54 -250.54)"/><path class="cls-11" d="M107.95,290c0.06-.67.13-1.34,0.2-2C108.08,288.65,108,289.32,107.95,290Z" transform="translate(-35.54 -250.54)"/><path class="cls-11" d="M107.73,292.38c0.06-.63.11-1.26,0.17-1.88C107.84,291.12,107.79,291.75,107.73,292.38Z" transform="translate(-35.54 -250.54)"/><path class="cls-11" d="M107.54,294.83c0-.6.09-1.19,0.14-1.78C107.63,293.63,107.58,294.23,107.54,294.83Z" transform="translate(-35.54 -250.54)"/><path class="cls-10" d="M114.65,253.34c-0.39,1.34-2.18,7.67-3.92,17h0C112.47,261,114.26,254.68,114.65,253.34Z" transform="translate(-35.54 -250.54)"/><circle class="cls-10" cx="79.38" cy="65.28" r="6.91"/><path class="cls-12" d="M114.92,324a8.17,8.17,0,1,1,8.17-8.17A8.18,8.18,0,0,1,114.92,324Zm0-13.83a5.66,5.66,0,1,0,5.66,5.66A5.66,5.66,0,0,0,114.92,310.16Z" transform="translate(-35.54 -250.54)"/><circle class="cls-13" cx="80.97" cy="63.89" r="2.76"/><circle class="cls-10" cx="79.38" cy="45.12" r="6.91"/><path class="cls-12" d="M114.92,303.83a8.17,8.17,0,1,1,8.17-8.17A8.18,8.18,0,0,1,114.92,303.83Zm0-13.83a5.66,5.66,0,1,0,5.66,5.66A5.66,5.66,0,0,0,114.92,290Z" transform="translate(-35.54 -250.54)"/><circle class="cls-13" cx="80.97" cy="43.73" r="2.77"/><circle class="cls-10" cx="79.38" cy="28.19" r="4.94"/><path class="cls-12" d="M114.92,284.57a5.83,5.83,0,1,1,5.83-5.83A5.84,5.84,0,0,1,114.92,284.57Zm0-9.87a4,4,0,1,0,4,4A4,4,0,0,0,114.92,274.7Z" transform="translate(-35.54 -250.54)"/><circle class="cls-13" cx="80.52" cy="27.2" r="1.97"/><path class="cls-14" d="M114.92,391.88s7.21-8.76,7.2-19.57V361H107.72v11.28C107.72,383.12,114.92,391.88,114.92,391.88Z" transform="translate(-35.54 -250.54)"/><path class="cls-15" d="M114.92,383.45s4.93-6,4.93-13.4v-7.73H110V370C110,377.45,114.92,383.45,114.92,383.45Z" transform="translate(-35.54 -250.54)"/><rect class="cls-16" x="70.15" y="103.77" width="18.08" height="8.72" rx="3.23" ry="3.23"/><rect class="cls-17" x="73.81" y="103.77" width="14.42" height="8.72" rx="3.23" ry="3.23"/><rect class="cls-12" x="73.81" y="103.77" width="11.14" height="8.72" rx="3.23" ry="3.23"/><polygon class="cls-4" points="83.53 89.81 79.19 130.4 74.84 89.81 79.19 79.05 83.53 89.81"/><polygon class="cls-5" points="79.19 79.05 79.19 130.4 74.84 89.81 79.19 79.05"/><path class="cls-3" d="M80.53,266.5a4.73,4.73,0,0,0,3.71,1.78l0.44,0a7.9,7.9,0,0,0,2.72,3.81v0a12,12,0,0,1,0,6.09v0.07H87.17a0.7,0.7,0,0,0-.69.64,0.47,0.47,0,0,0,0,.06,0.69,0.69,0,0,0,.2.49H86a1,1,0,0,0-1,.77,0.92,0.92,0,0,0,0,.21,1,1,0,0,0,.16.55H84.48a1.16,1.16,0,0,0-.82.34,1.13,1.13,0,0,0-.33.64,1,1,0,0,0,0,.18,1.16,1.16,0,0,0,.5,1H82.64a0.55,0.55,0,0,0-.54.55v1.92a0.55,0.55,0,0,0,.54.55H94.2a0.55,0.55,0,0,0,.55-0.55v-1.92a0.55,0.55,0,0,0-.55-0.55H93a1.16,1.16,0,0,0,.5-1,1.35,1.35,0,0,0,0-.18,1.16,1.16,0,0,0-1.15-1H91.7a1,1,0,0,0,.16-0.55,1,1,0,0,0,0-.21,1,1,0,0,0-1-.77H90.16a0.69,0.69,0,0,0,.2-0.49,0.47,0.47,0,0,0,0-.06,0.7,0.7,0,0,0-.7-0.64H89.44c-0.27,0-.5-1.39-0.5-3.11a8.08,8.08,0,0,1,.38-3c1.07-.54,2-2,2.83-3.87l0.44,0a4.73,4.73,0,0,0,3.71-1.78l0.29-.36a4.74,4.74,0,0,0-2.34-7.51v-0.05h0a0.53,0.53,0,0,0,0-1.06H82.55a0.55,0.55,0,0,0-.31.15,0.53,0.53,0,0,0,.33.91h0s0,0,0,.05a4.74,4.74,0,0,0-2.34,7.51ZM94.16,260a3.43,3.43,0,0,1,1.43,5.36l-0.29.36a3.42,3.42,0,0,1-1.8,1.17,0.58,0.58,0,0,0,0-.12,0.62,0.62,0,0,0-.59-0.62A31.93,31.93,0,0,0,94.16,260Zm-12.37.51a3.49,3.49,0,0,1,.89-0.51,32,32,0,0,0,1.23,6.16,0.62,0.62,0,0,0-.59.62,0.61,0.61,0,0,0,0,.12,3.42,3.42,0,0,1-1.8-1.17l-0.29-.36A3.45,3.45,0,0,1,81.79,260.48Z" transform="translate(-35.54 -250.54)"/><path class="cls-3" d="M181.92,328.46a1.29,1.29,0,0,1,1.29-1.28,1.26,1.26,0,0,1,.65.2l1.89-2.17a0.41,0.41,0,1,1,.62.54l-2,2.25a1.29,1.29,0,0,1,.09.46h4.67a6,6,0,0,0-11.91,0h4.67Z" transform="translate(-35.54 -250.54)"/><path class="cls-3" d="M183.21,336.49a8,8,0,0,0,5.8-13.54,0.77,0.77,0,0,0,.1-0.11l0.4-.67a0.73,0.73,0,0,0-.25-1l-0.67-.4a0.73,0.73,0,0,0-1,.25l-0.32.54a7.94,7.94,0,0,0-1.59-.72,0.93,0.93,0,0,0,.45-0.79v-0.78a1,1,0,0,0-1-1h-3.91a1,1,0,0,0-1,1V320a0.94,0.94,0,0,0,.45.79,7.94,7.94,0,0,0-1.65.75v0l-0.51-.6a0.73,0.73,0,0,0-1-.08l-0.6.5a0.74,0.74,0,0,0-.08,1l0.49,0.58A8,8,0,0,0,183.21,336.49Zm6.92-8a6.92,6.92,0,1,1-6.92-6.92A6.93,6.93,0,0,1,190.13,328.47Z" transform="translate(-35.54 -250.54)"/><path class="cls-3" d="M184.36,329l-0.52-.38-0.26-.19-0.1-.08a0.41,0.41,0,0,0-.56.08h0a0.41,0.41,0,0,0,0,.09l0,0.06a0.42,0.42,0,0,0,0,.18,0.41,0.41,0,0,0,.15.24h0l0.78,0.57,2.95,2.16a0.41,0.41,0,1,0,.49-0.66Z" transform="translate(-35.54 -250.54)"/><path class="cls-18" d="M153.83,359.45a1.78,1.78,0,0,1-1.18-.56,3.1,3.1,0,0,0-.42-0.32h-0.11c-0.51.62-.43,3.14-0.31,4.14a17.7,17.7,0,0,1,2.83-.29,2.41,2.41,0,0,1,1.7.42,0.73,0.73,0,0,1,0,.76,3.42,3.42,0,0,1-.39.51,1.26,1.26,0,0,0-.42.8,1.39,1.39,0,1,0,2.78,0,1.26,1.26,0,0,0-.42-0.8,3.42,3.42,0,0,1-.39-0.51,0.73,0.73,0,0,1,0-.76,2.56,2.56,0,0,1,1.8-.46,16.7,16.7,0,0,1,2.74.29c-0.22-1.15-.61-3.78.16-4.55a0.53,0.53,0,0,1,.39-0.13,0.83,0.83,0,0,1,.38.09,3.5,3.5,0,0,1,.51.38,1.27,1.27,0,0,0,.8.42,1.39,1.39,0,0,0,0-2.78,1.28,1.28,0,0,0-.8.42,3.43,3.43,0,0,1-.51.38,0.83,0.83,0,0,1-.38.09,0.53,0.53,0,0,1-.39-0.13c-0.7-.7-0.45-2.92-0.2-4.36a19.11,19.11,0,0,0-2-.27h-1.2a1.62,1.62,0,0,0-.81.23,0.3,0.3,0,0,0,0,.09,3,3,0,0,0,.32.42,1.78,1.78,0,0,1,.56,1.18,2,2,0,0,1-3.94,0,1.78,1.78,0,0,1,.56-1.18,3.12,3.12,0,0,0,.32-0.41,0.37,0.37,0,0,0,0-.1,1.54,1.54,0,0,0-.77-0.23h-1.26c-0.63,0-1.25.13-1.71,0.21-0.36,2-.37,3.53,0,4h0.1a3,3,0,0,0,.43-0.32,1.78,1.78,0,0,1,1.18-.56A2,2,0,0,1,153.83,359.45Z" transform="translate(-35.54 -250.54)"/><path class="cls-18" d="M161.82,368.91a3.08,3.08,0,0,1-1.46.85,1.68,1.68,0,0,1,0-3.36,3.08,3.08,0,0,1,1.46.85,0.47,0.47,0,0,0,.41,0,1.71,1.71,0,0,0,.35-1v-1.28a19.07,19.07,0,0,0-.25-1.91h0.07c-0.76-.15-3.82-0.69-4.55,0a0.49,0.49,0,0,0,0,.42,3.08,3.08,0,0,1,.85,1.46,1.68,1.68,0,1,1-3.36,0,3.08,3.08,0,0,1,.85-1.46,0.49,0.49,0,0,0,0-.42c-0.75-.75-4-0.14-4.62,0,0.19,1.09.55,3.56-.1,4.21a0.46,0.46,0,0,1-.41,0,3.08,3.08,0,0,0-1.46-.85,1.68,1.68,0,0,0,0,3.36,3.08,3.08,0,0,0,1.46-.85,0.47,0.47,0,0,1,.41,0c0.83,0.83,0,4.71,0,4.71s3.88-.83,4.72,0a0.49,0.49,0,0,1,0,.42,3.08,3.08,0,0,0-.85,1.46,1.68,1.68,0,1,0,3.36,0,3.08,3.08,0,0,0-.85-1.46,0.49,0.49,0,0,1,0-.42c0.69-.69,3.43-0.25,4.39-0.07a19.79,19.79,0,0,0,.33-2.38v-1.23a1.73,1.73,0,0,0-.35-1A0.47,0.47,0,0,0,161.82,368.91Z" transform="translate(-35.54 -250.54)"/><path class="cls-18" d="M171.18,366.1a1.78,1.78,0,0,1,1.18.56,3.07,3.07,0,0,0,.41.32h0.1a1.54,1.54,0,0,0,.23-0.77V365c0-.63-0.13-1.25-0.21-1.71a16,16,0,0,0-2.62-.28,2.31,2.31,0,0,0-1.35.25,0.42,0.42,0,0,0,0,.1,3,3,0,0,0,.32.43,1.78,1.78,0,0,1,.56,1.18,2,2,0,1,1-3.94,0,1.77,1.77,0,0,1,.56-1.18,3.07,3.07,0,0,0,.32-0.42,0.37,0.37,0,0,0,0-.11,2.31,2.31,0,0,0-1.35-.25,16.33,16.33,0,0,0-2.69.29c0.27,1.61.41,3.54-.23,4.18a0.52,0.52,0,0,1-.38.13,0.82,0.82,0,0,1-.38-0.09,3.41,3.41,0,0,1-.51-0.39,1.26,1.26,0,0,0-.8-0.42,1.39,1.39,0,0,0,0,2.78,1.26,1.26,0,0,0,.8-0.42,3.56,3.56,0,0,1,.51-0.39,0.83,0.83,0,0,1,.38-0.09,0.52,0.52,0,0,1,.38.13c0.77,0.77.38,3.39,0.17,4.54a16.65,16.65,0,0,1,2.75-.29,2.57,2.57,0,0,1,1.8.46,0.74,0.74,0,0,1,0,.77,3.4,3.4,0,0,1-.39.51,1.26,1.26,0,0,0-.42.8,1.39,1.39,0,0,0,2.78,0,1.26,1.26,0,0,0-.42-0.8,3.37,3.37,0,0,1-.39-0.51,0.74,0.74,0,0,1,0-.77,2.57,2.57,0,0,1,1.8-.46,16.08,16.08,0,0,1,2.56.26,18.57,18.57,0,0,0,.27-2V370a1.6,1.6,0,0,0-.23-0.81h-0.09a3,3,0,0,0-.43.32,1.78,1.78,0,0,1-1.18.56A2,2,0,0,1,171.18,366.1Z" transform="translate(-35.54 -250.54)"/><path class="cls-18" d="M180.09,352.59a1.38,1.38,0,0,0-1.22-1.21,1.45,1.45,0,0,0-.32,0,1.25,1.25,0,0,0-.74.51,3.5,3.5,0,0,1-.46.44,0.87,0.87,0,0,1-.54.13,0.45,0.45,0,0,1-.23-0.09c-0.86-.68-0.79-3.33-0.71-4.5a11.61,11.61,0,0,1-3.77.64,1.46,1.46,0,0,1-.76-0.26,0.73,0.73,0,0,1-.14-0.75,3.55,3.55,0,0,1,.32-0.55,1.26,1.26,0,0,0,.32-0.84,1.39,1.39,0,1,0-2.75.33,1.25,1.25,0,0,0,.51.74,3.35,3.35,0,0,1,.44.46,0.73,0.73,0,0,1,0,.76c-0.58.74-2.58,0.81-4.27,0.72-0.09,1.95.1,3.4,0.48,3.79l0.09,0a3,3,0,0,0,.38-0.38,1.76,1.76,0,0,1,1.1-.71,1.88,1.88,0,0,1,.44,0,2,2,0,0,1,1.75,1.76,2,2,0,0,1-.4,1.48,2,2,0,0,1-1.32.75,1.34,1.34,0,0,1-.29,0,2.09,2.09,0,0,1-.95-0.43,2.57,2.57,0,0,0-.47-0.28h-0.09c-0.38.62,0.1,2.74,0.56,4.22a10.72,10.72,0,0,1,3.49-.56,1.48,1.48,0,0,1,.76.27,0.73,0.73,0,0,1,.14.75,3.4,3.4,0,0,1-.32.56,1.27,1.27,0,0,0-.32.84,1.38,1.38,0,0,0,1.22,1.21,1.41,1.41,0,0,0,.32,0,1.39,1.39,0,0,0,1.21-1.54,1.25,1.25,0,0,0-.51-0.74,3.42,3.42,0,0,1-.44-0.46,0.73,0.73,0,0,1,0-.76c0.67-.86,3.32-0.79,4.49-0.71-0.35-1.12-1.05-3.68-.38-4.54a0.7,0.7,0,0,1,.59-0.18l0.17,0a3.41,3.41,0,0,1,.55.32,1.63,1.63,0,0,0,.68.32h0.16A1.39,1.39,0,0,0,180.09,352.59Z" transform="translate(-35.54 -250.54)"/><g class="cls-19"><path class="cls-3" d="M66.05,277.51a9.6,9.6,0,1,0,9.6,9.6A9.6,9.6,0,0,0,66.05,277.51Zm0,18.18a8.59,8.59,0,1,1,8.59-8.59A8.58,8.58,0,0,1,66.05,295.69Z" transform="translate(-35.54 -250.54)"/><path class="cls-3" d="M66.05,281.61a0.35,0.35,0,0,0,.35-0.35v-1.51a0.35,0.35,0,0,0-.71,0v1.51A0.35,0.35,0,0,0,66.05,281.61Z" transform="translate(-35.54 -250.54)"/><path class="cls-3" d="M66.05,292.6a0.35,0.35,0,0,0-.35.35v1.51a0.35,0.35,0,1,0,.71,0V293A0.35,0.35,0,0,0,66.05,292.6Z" transform="translate(-35.54 -250.54)"/><path class="cls-3" d="M60.21,286.75H58.69a0.36,0.36,0,1,0,0,.71h1.51A0.36,0.36,0,0,0,60.21,286.75Z" transform="translate(-35.54 -250.54)"/><path class="cls-3" d="M73.41,286.75H71.9a0.36,0.36,0,0,0,0,.71h1.51A0.36,0.36,0,0,0,73.41,286.75Z" transform="translate(-35.54 -250.54)"/><path class="cls-3" d="M71.7,283.57l-0.32-.47-4.87,3.35,2.64-5.95-0.27-.12-2.65,6-0.18,0a0.76,0.76,0,0,0-.51.2l-3.4-.76-0.2.91,3.4,0.75a0.79,0.79,0,0,0,1.5-.32,0.72,0.72,0,0,0,0-.18Z" transform="translate(-35.54 -250.54)"/></g></g></g></g></svg>