<svg id="Layer_1" data-name="Layer 1" xmlns="http://www.w3.org/2000/svg" viewBox="0 0 2467.83 421.4"><defs><style>.cls-1{fill:#4fa4ce;}.cls-2{fill:#0d0d0d;}.cls-3{opacity:0.25;}.cls-4{opacity:0.5;}.cls-5{fill:#fff;}</style></defs><title>shaw2</title><path class="cls-1" d="M2321.86-277.12q35,0,35-22.31c0-4.62-2.41-8-6.83-10.45a82.43,82.43,0,0,0-17.48-6.43c-7-1.81-14.67-3.82-22.91-5.83a103.52,103.52,0,0,1-22.91-8.44,52.49,52.49,0,0,1-17.48-14.07c-4.62-5.83-6.83-12.86-6.83-21.3s1.21-15.67,3.82-21.7a43.39,43.39,0,0,1,11.25-15.67c11.05-9.44,26.53-14.07,46.22-14.07a135.23,135.23,0,0,1,45.62,7.84,13.61,13.61,0,0,1,6.83,5,13.23,13.23,0,0,1,2.41,7.64c0,2.81-1.21,5.43-3.62,8s-4.82,3.82-7,3.82a29.36,29.36,0,0,1-8.44-1.61c-10-3.22-21.1-4.62-33-4.62-12.06,0-21.1,2-27.13,6.23-6.23,4.22-9.24,9.24-9.24,15.07s2.41,10.25,7,13.06a64.6,64.6,0,0,0,17.48,7c7,1.81,14.47,3.82,22.91,5.63a102.56,102.56,0,0,1,22.91,7.84c16.28,8.44,24.52,21.5,24.52,39,0,13.46-5,24.32-15.07,32.76-10.85,9.24-26.12,13.87-45.62,13.87-21.1,0-40.19-4.62-57.27-14.07-3.62-2.61-5.43-5.63-5.43-9.44A14.49,14.49,0,0,1,2265-284c2.21-2.61,4.82-4,7.64-4a23.24,23.24,0,0,1,9.85,2.61A92.71,92.71,0,0,0,2321.86-277.12Z" transform="translate(-1754.85 549.51)"/><path class="cls-1" d="M2502.32-391.06c-18.49,0-35.77,10-51.64,30.14v94.45a13.2,13.2,0,0,1-4.22,10,13.78,13.78,0,0,1-10.25,4,13.79,13.79,0,0,1-10-4,13.33,13.33,0,0,1-4-10V-470.64a14.74,14.74,0,0,1,4-10.45,13.33,13.33,0,0,1,10-4,14.6,14.6,0,0,1,10.25,4,14.09,14.09,0,0,1,4.22,10.45v82.19c8.44-8.84,15.67-15.07,21.7-18.49,12.06-6.83,23.31-10.45,34.16-10.45s19.69,1.61,26.53,4.82a50.58,50.58,0,0,1,17.68,13.46c9.85,11.45,14.87,26.12,14.87,43.41v89.42a13.2,13.2,0,0,1-4.22,10,13.78,13.78,0,0,1-10.25,4,13.79,13.79,0,0,1-10-4,13.33,13.33,0,0,1-4-10v-86.21c0-12.06-2.61-21.3-8-28.13C2523.42-387.65,2514.58-391.06,2502.32-391.06Z" transform="translate(-1754.85 549.51)"/><path class="cls-1" d="M2619.68-406.14a136.82,136.82,0,0,1,54.86-11.25c21.5,0,38,6.43,49.64,19.49,10.45,11.25,15.67,25.52,15.67,42.4v89a13.2,13.2,0,0,1-4.22,10,13.78,13.78,0,0,1-10.25,4,13.79,13.79,0,0,1-10-4,13.33,13.33,0,0,1-4-10v-8.24q-8.44,8.74-22.91,16.28c-9.65,5-21.7,7.64-36.37,7.64q-21.7,0-36.17-12.66c-10-8.84-15.07-20.3-15.07-34.56,0-15.47,5.83-27.73,17.68-36.57q19.29-14.47,54.86-14.47h38.18v-2.61c0-14.07-3.42-24.11-10.45-30.14s-17.48-9-31.75-9c-12.26,0-26.12,2.61-41.8,7.64a24.16,24.16,0,0,1-5.63.6c-2,0-4.22-1-6.63-3.22s-3.42-5.63-3.42-10.25C2611.44-400.31,2614.25-403.93,2619.68-406.14Zm9.65,105.1c0,16.88,11.05,25.12,33.36,25.12a54.72,54.72,0,0,0,27.53-7.23,83.79,83.79,0,0,0,20.9-16.28V-326h-34.36c-14.87,0-26.53,1.81-35,5.63C2633.54-316.51,2629.32-310.08,2629.32-301Z" transform="translate(-1754.85 549.51)"/><path class="cls-1" d="M2976-407.34c1.61-5.63,6.23-8.44,13.46-8.44a13.42,13.42,0,0,1,9.44,4c2.81,2.81,4,5.43,4,8.44a21.77,21.77,0,0,1-1,7l-44.61,131a20.31,20.31,0,0,1-6.83,9.24,18.37,18.37,0,0,1-11.25,4,17.54,17.54,0,0,1-11.25-4,21.22,21.22,0,0,1-7.23-9.65l-33.36-104.09L2854-265.67a21.22,21.22,0,0,1-7.23,9.65,18.37,18.37,0,0,1-11.25,4,17.53,17.53,0,0,1-11.25-4,19,19,0,0,1-6.83-9.24l-44.61-131a22.7,22.7,0,0,1-1-7c0-2.81,1.41-5.63,4-8.44a12.63,12.63,0,0,1,9.44-4c7.44,0,11.86,2.81,13.46,8.44l36.77,121.17,36.57-118.36a16,16,0,0,1,5.83-8.24,16.35,16.35,0,0,1,9.65-3.22,15.1,15.1,0,0,1,9.65,3.22,15.26,15.26,0,0,1,5.83,8.24l36.57,118.36Z" transform="translate(-1754.85 549.51)"/><path class="cls-2" d="M3140.34-253.81c-2-6.63-3-16.28-3-28.54A65.27,65.27,0,0,1,3111.21-259a83.74,83.74,0,0,1-37.38,8.24c-14.87,0-26.93-4-36-11.86s-13.66-18.09-13.66-30.75c0-14.27,6.63-25.92,20.1-34.56,13.26-8.64,31.15-13.06,53.25-13.26h39.79v-22.91c0-13.06-4.22-23.31-12.66-30.54s-20.7-10.85-36.37-10.85c-14.67,0-26.93,3.62-36.77,11.05-9.85,7.23-14.67,16.48-14.67,27.13l-8-.2c0-12.66,5.83-23.51,17.28-32.35s25.72-13.26,42.4-13.26c17.48,0,31.15,4.22,41.4,12.66s15.47,20.3,15.88,35.57v74.75q0,25.62,4.22,35V-254h-9.65v0.2Zm-66.31-5c15.07,0,28.13-3.22,39-9.85a61.59,61.59,0,0,0,24.52-27.53v-37.18h-37.18c-23.11,0-40.59,4.42-52.85,13.26-9.85,7.23-14.87,16.28-14.87,27.13,0,9.44,4,17.68,11.86,24.32C3051.92-262.05,3062-258.84,3074-258.84Z" transform="translate(-1754.85 549.51)"/><path class="cls-2" d="M3252.07-258.84c14.67,0,26.73-3.82,36.17-11.25s14.67-17.88,15.67-31.15h8c-0.8,15.07-6.83,27.33-18.09,36.57s-25.12,13.87-41.8,13.87c-20.1,0-36.17-7-48-21.3s-17.88-33.36-17.88-57.67V-335c0-23.71,6-42.6,17.88-56.87s27.73-21.3,47.83-21.3c17.08,0,31.15,5,42.4,14.87,11.05,9.85,17.08,23.11,17.68,39.59h-8c-0.6-14.07-5.83-25.32-15.27-34-9.44-8.44-21.7-12.86-36.77-12.86-17.88,0-32.15,6.23-42.2,18.89-10.25,12.66-15.27,30.14-15.27,52.45v5c0,21.9,5.22,39,15.47,51.44C3219.92-265.07,3234-258.84,3252.07-258.84Z" transform="translate(-1754.85 549.51)"/><path class="cls-2" d="M3456.44-253.81c-2-6.63-3-16.28-3-28.54A65.27,65.27,0,0,1,3427.3-259a83.74,83.74,0,0,1-37.38,8.24c-14.87,0-26.93-4-36-11.86s-13.66-18.09-13.66-30.75c0-14.27,6.63-25.92,20.1-34.56,13.26-8.64,31.15-13.06,53.25-13.26h39.79v-22.91c0-13.06-4.22-23.31-12.66-30.54s-20.7-10.85-36.37-10.85c-14.67,0-26.93,3.62-36.77,11.05-9.85,7.23-14.67,16.48-14.67,27.13l-8-.2c0-12.66,5.83-23.51,17.28-32.35s25.72-13.26,42.4-13.26c17.48,0,31.15,4.22,41.4,12.66s15.47,20.3,15.88,35.57v74.75q0,25.62,4.22,35V-254h-9.65v0.2Zm-66.52-5c15.07,0,28.13-3.22,39-9.85a61.59,61.59,0,0,0,24.52-27.53v-37.18h-37.18c-23.11,0-40.59,4.42-52.85,13.26-9.85,7.23-14.87,16.28-14.87,27.13,0,9.44,4,17.68,11.86,24.32C3368-262.05,3377.87-258.84,3389.93-258.84Z" transform="translate(-1754.85 549.51)"/><path class="cls-2" d="M3505.88-333.59q0-37.38,16.28-58.48t44.61-21.1c12.06,0,22.91,2.61,32.15,8,9.24,5.22,16.88,13.26,22.51,23.71v-94.45h8v222.05h-8v-24.92a57.38,57.38,0,0,1-22.51,20.7q-14.17,7.23-32.55,7.23c-18.69,0-33.36-7.23-44.21-21.5s-16.28-34.16-16.28-59.08v-2.21Zm8.24,3c0,22.1,4.42,39.59,13.46,52.65,9,12.86,21.9,19.29,38.38,19.29,13.26,0,24.72-2.81,34.16-8.64s16.48-14.07,21.1-25.32v-73.35c-9.24-26.32-27.53-39.39-54.86-39.39-16.48,0-29.34,6.23-38.58,18.89C3518.74-373.78,3514.12-355.09,3514.12-330.58Z" transform="translate(-1754.85 549.51)"/><path class="cls-2" d="M3738.38-251a65.65,65.65,0,0,1-35.77-10.25,70,70,0,0,1-25.52-27.93c-6.23-11.86-9.24-24.92-9.24-39.39V-335a90.28,90.28,0,0,1,8.84-39.79c6-12.06,14.07-21.5,24.52-28.13a61.15,61.15,0,0,1,34.16-10c17.88,0,32.76,6.23,44.21,18.69s17.08,28.74,17.08,49V-337H3675.88v8.44a78.25,78.25,0,0,0,8.24,35.37,63.64,63.64,0,0,0,22.71,25.52,56.76,56.76,0,0,0,31.55,9.24c10.85,0,20.1-1.81,27.73-5.22s14.27-8.84,20.1-16.08l5.63,3.82C3779.78-259.44,3762.09-251,3738.38-251Zm-3-154.33c-15.67,0-28.94,5.63-40,17.08-10.85,11.25-17.28,25.72-19.29,43.2h112.33v-1.81a63.89,63.89,0,0,0-6.83-29.54,53.15,53.15,0,0,0-19.09-21.3A50.21,50.21,0,0,0,3735.37-405.33Z" transform="translate(-1754.85 549.51)"/><path class="cls-2" d="M3949.58-253.81h-8v-105.1c-0.2-15.67-3.62-27.33-10.65-35s-18.09-11.45-33.56-11.45c-17.68,0-32.15,7.64-43.41,22.71a75.36,75.36,0,0,0-13.26,30.14v98.87h-8.24V-410h8.24v37c5.43-12.66,13.26-22.51,23.31-29.54A57.41,57.41,0,0,1,3897.74-413c13.46,0,24.52,2.81,33.16,8.64s14.27,15.27,16.88,28.33a57.18,57.18,0,0,1,23.31-26.93,66.9,66.9,0,0,1,36-10c17.48,0,30.34,4.82,38.78,14.27s12.86,23.91,12.86,43v102.08h-8V-355.09c0-17.08-3.62-29.74-10.65-38s-18.29-12.26-33.56-12.06c-19.49.2-35.17,7.84-46.42,22.71-6.63,8.64-10,16.88-10.65,24.92v103.69h0.2Z" transform="translate(-1754.85 549.51)"/><path class="cls-2" d="M4157.17-266.07l1-2.81,55.66-141.47h8.84l-72.14,183.67-3.62,8.64c-7.84,18.29-20.5,27.33-38.38,27.33-5.83,0-9.65-.6-11.86-1.61l-0.2-7.44a44.82,44.82,0,0,0,10.85,1.21q12.66,0,21.1-7.23c5.63-4.82,10.45-12.46,14.47-23.31l9.85-25.72-64.3-155.54h8.84Z" transform="translate(-1754.85 549.51)"/><g class="cls-3"><circle class="cls-1" cx="210.7" cy="210.7" r="210.7"/></g><g class="cls-4"><circle class="cls-1" cx="210.7" cy="210.7" r="168"/></g><circle class="cls-1" cx="210.7" cy="210.7" r="115.7"/><path class="cls-5" d="M1966-296.81q26.4,0,26.4-17.4c0-4.8-3.4-8.7-10.1-11.6A64.92,64.92,0,0,0,1972-329c-3.9-1-7.8-2-11.8-3.1s-7.9-2.4-11.8-3.8a42.62,42.62,0,0,1-10.4-5.4,23.92,23.92,0,0,1-10-19.9,27.22,27.22,0,0,1,10-21.8c7.3-6.1,17-9.2,29.2-9.2a87.59,87.59,0,0,1,30.1,5,5.84,5.84,0,0,1,4.2,6,6.77,6.77,0,0,1-1.6,4.3,4.33,4.33,0,0,1-3.5,2,16.2,16.2,0,0,1-5.2-1.2,67.7,67.7,0,0,0-22.5-3.5c-7.8,0-14.2,1.5-19.2,4.4s-7.7,7.3-7.7,12.8c0,5.7,3.3,10.1,10,13a51.72,51.72,0,0,0,10.3,3.5c3.8,0.9,7.8,1.9,11.8,2.9a115.15,115.15,0,0,1,11.8,3.6,38.78,38.78,0,0,1,10.3,5.4c6.6,4.8,10,11.8,10,20.9,0,8.7-3.5,15.7-10.4,21.2-7.2,5.5-16.6,8.3-28.3,8.3a88.79,88.79,0,0,1-36-7.3,7.34,7.34,0,0,1-2.9-2.4,6,6,0,0,1-1.3-4,6.07,6.07,0,0,1,1.7-4.2,4.91,4.91,0,0,1,3.9-1.9,14.36,14.36,0,0,1,5.4,1.4,72.33,72.33,0,0,0,10.7,3.4A76.68,76.68,0,0,0,1966-296.81Z" transform="translate(-1754.85 549.51)"/></svg>