<?xml version="1.0" encoding="utf-8"?>
<!-- Generator: Adobe Illustrator 19.0.1, SVG Export Plug-In . SVG Version: 6.00 Build 0)  -->
<svg version="1.1" id="Layer_1" xmlns="http://www.w3.org/2000/svg" xmlns:xlink="http://www.w3.org/1999/xlink" x="0px" y="0px"
	 viewBox="0 0 721.5 72" style="enable-background:new 0 0 721.5 72;" xml:space="preserve">
<style type="text/css">
	.st0{fill:#FFFFFF;}
	.st1{fill:#EB6711;}
</style>
<path class="st0" d="M177,38.3c1.4,1.6,2.5,3.3,3.1,5.1c0.7,1.9,1,4,1,6.5c0,5.9-2.2,10.7-6.5,14.6c-4.4,3.8-9.8,5.7-16.2,5.7
	c-3,0-6-0.5-8.9-1.4c-3-0.9-5.5-2-7.7-3.4l-2,3.4H136l-0.7-22.8h3.8c0.8,2.8,1.7,5.4,2.8,7.6c1,2.3,2.4,4.4,4.2,6.4
	c1.6,1.8,3.5,3.3,5.7,4.4c2.2,1.1,4.7,1.6,7.6,1.6c2.2,0,4-0.3,5.7-0.8c1.6-0.6,2.9-1.4,3.9-2.4c1-1,1.7-2.3,2.2-3.6
	c0.5-1.4,0.7-3,0.7-4.8c0-2.7-0.8-5.2-2.3-7.5c-1.5-2.3-3.7-4.1-6.7-5.2c-2-0.8-4.4-1.7-7-2.7c-2.6-1-4.9-1.9-6.8-2.8
	c-3.8-1.7-6.7-3.9-8.8-6.6c-2.1-2.7-3.1-6.3-3.1-10.7c0-2.5,0.5-4.9,1.6-7.1c1-2.2,2.5-4.2,4.4-5.9c1.8-1.6,4-2.9,6.4-3.8
	c2.5-0.9,5.1-1.4,7.8-1.4c3.1,0,5.8,0.5,8.2,1.4c2.4,0.9,4.6,2,6.7,3.3l1.9-3.2h3.8l0.4,22.1h-3.8c-0.7-2.5-1.5-5-2.3-7.3
	c-0.9-2.3-2-4.4-3.4-6.3c-1.3-1.8-3-3.3-4.9-4.3c-1.9-1.1-4.3-1.6-7.1-1.6c-3,0-5.5,1-7.6,2.9c-2.1,1.9-3.1,4.2-3.1,7
	c0,2.9,0.7,5.3,2,7.2c1.3,1.9,3.3,3.5,5.9,4.7c2.3,1.1,4.5,2,6.7,2.8c2.2,0.8,4.3,1.7,6.4,2.6c1.9,0.8,3.7,1.7,5.4,2.8
	C174.2,35.8,175.7,37,177,38.3z"/>
<path class="st0" d="M262,68.9h-27.7v-3.3c0.8-0.1,1.8-0.2,3.3-0.3c1.4-0.1,2.4-0.3,2.9-0.6c0.9-0.4,1.6-0.9,2.1-1.7
	c0.4-0.8,0.7-1.8,0.7-3V36.3h-31.4v23.2c0,1.1,0.2,2,0.5,2.8c0.4,0.8,1.1,1.4,2.1,2c0.5,0.3,1.5,0.6,2.8,0.8
	c1.4,0.3,2.4,0.4,3.2,0.5v3.3h-27.7v-3.3c0.8-0.1,1.8-0.2,3.3-0.3c1.4-0.1,2.4-0.3,2.9-0.6c0.9-0.4,1.6-0.9,2.1-1.7
	c0.4-0.8,0.7-1.8,0.7-3V11.9c0-1-0.2-1.9-0.6-2.8c-0.4-0.8-1.1-1.5-2.1-2c-0.8-0.4-1.9-0.8-3.1-1.1c-1.2-0.3-2.2-0.5-3.1-0.6V2.2
	h27.7v3.3c-0.9,0-2,0.2-3.2,0.4s-2.2,0.5-2.8,0.7c-1.1,0.4-1.8,1-2.1,1.9c-0.4,0.9-0.5,1.8-0.5,2.9v20.7h31.4V11.9
	c0-1-0.2-1.9-0.6-2.8c-0.4-0.8-1.1-1.5-2.1-2c-0.8-0.4-1.9-0.8-3.1-1.1c-1.2-0.3-2.2-0.5-3.1-0.6V2.2H262v3.3c-0.9,0-2,0.2-3.2,0.4
	c-1.3,0.3-2.2,0.5-2.8,0.7c-1.1,0.4-1.8,1-2.1,1.9c-0.4,0.9-0.5,1.8-0.5,2.9v48.1c0,1.1,0.2,2,0.5,2.8c0.4,0.8,1.1,1.4,2.1,2
	c0.5,0.3,1.5,0.6,2.8,0.8c1.4,0.3,2.4,0.4,3.2,0.5V68.9z"/>
<path class="st0" d="M340.3,68.9h-27.7v-3.3c2.4-0.2,4.5-0.5,6.1-0.9c1.6-0.5,2.4-1,2.4-1.7c0-0.3,0-0.6-0.1-1
	c-0.1-0.4-0.2-0.8-0.3-1.1l-5.5-14.9h-23.4c-0.9,2.2-1.6,4.1-2.1,5.7c-0.5,1.6-1,3.1-1.5,4.5c-0.4,1.3-0.7,2.4-0.8,3.3
	c-0.2,0.8-0.2,1.5-0.2,2.1c0,1.3,1,2.2,3,2.9c2,0.7,4.2,1.1,6.7,1.2v3.3h-25.1v-3.3c0.8-0.1,1.8-0.2,3.1-0.5c1.2-0.3,2.2-0.7,3-1.2
	c1.3-0.8,2.2-1.7,2.9-2.7c0.7-0.9,1.4-2.2,2-3.8c3.4-8.4,7.1-17.8,11.1-28.2c4-10.4,7.6-19.7,10.8-27.9h3.8l22.2,57.5
	c0.5,1.2,1,2.2,1.6,3c0.6,0.8,1.4,1.5,2.5,2.2c0.7,0.4,1.7,0.8,2.8,1.1c1.2,0.3,2.1,0.5,2.9,0.5V68.9z M313.5,41.7l-10.1-25.9
	l-10,25.9H313.5z"/>
<path class="st0" d="M425,5.6c-0.8,0-1.7,0.2-2.7,0.5c-1,0.3-2,0.8-2.9,1.3c-1.1,0.7-2,1.5-2.7,2.4c-0.7,0.9-1.3,2.1-1.8,3.7
	c-2.2,7.2-4.8,15.7-7.8,25.4c-2.9,9.7-6.1,20-9.5,30.9h-4.3l-16.8-51.4L359,69.8h-4.2c-3.1-11-6.3-22.4-9.6-34.1
	c-3.3-11.8-5.5-19.7-6.7-23.7c-0.3-1-0.7-1.8-1.2-2.6c-0.6-0.8-1.3-1.4-2.2-2.1c-0.8-0.5-1.7-0.9-2.8-1.2s-2-0.4-2.8-0.5V2.2h27.2
	v3.3c-2.4,0.1-4.4,0.4-6.1,0.7s-2.5,0.9-2.5,1.7c0,0.3,0,0.7,0.1,1.2c0.1,0.5,0.2,0.9,0.2,1.2c0.7,2.8,2,7.3,3.8,13.7
	c1.8,6.4,4.5,15.9,8.1,28.6l16.6-49.6h4.6l16.8,50.6c2.3-7.8,4.2-14.6,5.8-20.4c1.6-5.8,3-10.8,4.1-14.9c0.8-2.9,1.2-4.9,1.4-6
	c0.2-1.1,0.3-2,0.3-2.7c0-1.1-0.7-2-2.2-2.7c-1.5-0.7-3.8-1.2-7.1-1.5V2.2H425V5.6z"/>
<path class="st0" d="M475.6,52.4h-19.1v-1.9c0.9-0.1,1.9-0.2,3.1-0.5c1.2-0.3,1.8-0.6,1.8-1c0-0.1,0-0.3,0-0.4s-0.1-0.4-0.2-0.7
	l-3-7.3H446c-0.3,0.7-0.6,1.5-0.9,2.4c-0.3,0.9-0.6,1.7-0.9,2.4c-0.3,0.9-0.5,1.6-0.6,2c-0.1,0.4-0.1,0.7-0.1,0.9
	c0,0.5,0.4,1,1.2,1.3c0.8,0.4,2.1,0.6,4,0.8v1.9h-14.4v-1.9c0.5,0,1.2-0.1,1.8-0.3c0.7-0.1,1.2-0.3,1.6-0.6c0.7-0.4,1.2-0.9,1.7-1.5
	c0.5-0.6,0.9-1.3,1.2-2.1c1.9-4.6,3.8-9.3,5.8-13.9c1.9-4.7,4-9.8,6.4-15.4h5c3.2,8,5.8,14.2,7.6,18.9c1.8,4.6,3.4,8.4,4.7,11.5
	c0.2,0.5,0.5,0.9,0.8,1.3c0.3,0.4,0.8,0.8,1.4,1.2c0.5,0.3,1,0.5,1.6,0.6c0.6,0.1,1.2,0.2,1.7,0.2V52.4z M457.1,38.2l-5.1-12.7
	l-5,12.7H457.1z"/>
<path class="st0" d="M494.3,53.4c-2.6,0-5-0.4-7.2-1.3s-4.2-2-5.9-3.6c-1.6-1.6-2.9-3.5-3.9-5.8c-0.9-2.3-1.4-4.8-1.4-7.5
	c0-2.7,0.5-5.3,1.4-7.6c0.9-2.3,2.3-4.3,4-6c1.7-1.7,3.7-3,6.1-3.9c2.4-0.9,4.9-1.4,7.6-1.4c1.9,0,3.7,0.2,5.3,0.7s3,1,4.1,1.6
	l1.5-1.4h2.2l0.2,12.8h-2.2c-1.2-3.9-2.7-6.8-4.5-8.6c-1.7-1.8-3.8-2.8-6.3-2.8c-3.1,0-5.5,1.4-7.1,4.1c-1.6,2.7-2.4,6.6-2.4,11.5
	c0,2.8,0.3,5.2,0.8,7.2s1.3,3.6,2.2,4.8c1,1.3,2.1,2.2,3.4,2.8c1.3,0.6,2.7,0.9,4.3,0.9c2.3,0,4.4-0.6,6.2-1.9
	c1.8-1.3,3.4-3.2,4.9-5.7l2.1,1.3c-0.7,1.5-1.5,2.8-2.4,3.9c-0.9,1.1-2,2.1-3.1,3c-1.3,0.9-2.7,1.6-4.3,2.1
	C498.3,53.1,496.5,53.4,494.3,53.4z"/>
<path class="st0" d="M550.3,52.4h-19.1v-1.9c0.9-0.1,1.9-0.2,3.1-0.5c1.2-0.3,1.8-0.6,1.8-1c0-0.1,0-0.3,0-0.4
	c0-0.2-0.1-0.4-0.2-0.7l-3-7.3h-12.1c-0.3,0.7-0.6,1.5-0.9,2.4c-0.3,0.9-0.6,1.7-0.9,2.4c-0.3,0.9-0.5,1.6-0.6,2
	c-0.1,0.4-0.1,0.7-0.1,0.9c0,0.5,0.4,1,1.2,1.3c0.8,0.4,2.1,0.6,4,0.8v1.9h-14.4v-1.9c0.5,0,1.2-0.1,1.8-0.3
	c0.7-0.1,1.2-0.3,1.6-0.6c0.7-0.4,1.2-0.9,1.7-1.5c0.5-0.6,0.9-1.3,1.2-2.1c1.9-4.6,3.8-9.3,5.8-13.9c1.9-4.7,4-9.8,6.4-15.4h5
	c3.2,8,5.8,14.2,7.6,18.9c1.8,4.6,3.4,8.4,4.7,11.5c0.2,0.5,0.5,0.9,0.8,1.3c0.3,0.4,0.8,0.8,1.4,1.2c0.5,0.3,1,0.5,1.6,0.6
	c0.6,0.1,1.2,0.2,1.7,0.2V52.4z M531.8,38.2l-5.1-12.7l-5,12.7H531.8z"/>
<path class="st0" d="M582.3,20.9c2.1,1.4,3.9,3.3,5.2,5.6c1.3,2.3,2,5.2,2,8.6c0,3-0.6,5.6-1.8,7.8c-1.2,2.2-2.7,4-4.7,5.4
	c-2,1.4-4.2,2.4-6.7,3.1c-2.5,0.7-5.2,1-7.9,1h-17.7v-1.9c0.5,0,1.2-0.1,2-0.1s1.3-0.2,1.6-0.3c0.6-0.2,1-0.6,1.2-1
	c0.2-0.4,0.3-0.9,0.3-1.5V22.6c0-0.6-0.1-1.1-0.3-1.5c-0.2-0.5-0.6-0.8-1.3-1.1c-0.6-0.3-1.3-0.5-2-0.6s-1.2-0.2-1.6-0.2v-1.9h18.7
	c2,0,4.1,0.3,6.4,0.8C578,18.6,580.1,19.5,582.3,20.9z M577.2,46.1c0.8-1.3,1.4-2.9,1.8-4.7c0.4-1.8,0.6-3.9,0.6-6.3
	c0-2.3-0.2-4.4-0.7-6.4c-0.5-1.9-1.2-3.5-2.2-4.9s-2.1-2.4-3.6-3.1c-1.4-0.7-3-1.1-4.9-1.1c-0.6,0-1.2,0-2,0c-0.7,0-1.3,0-1.6,0.1
	v26.7c0,0.6,0.1,1.1,0.2,1.6c0.2,0.5,0.4,0.9,0.8,1.2c0.4,0.3,0.8,0.6,1.4,0.8c0.6,0.2,1.3,0.3,2.2,0.3c1.9,0,3.5-0.3,4.8-1
	C575.3,48.4,576.4,47.4,577.2,46.1z"/>
<path class="st0" d="M624,26.2h-1.9c-0.5-1.3-1.3-2.7-2.5-4c-1.2-1.4-2.3-2.2-3.5-2.4c-0.5-0.1-1.2-0.2-2.1-0.2c-0.9,0-1.6,0-2.2,0
	h-5.1v13.5h3.6c0.9,0,1.7-0.1,2.5-0.3c0.7-0.2,1.4-0.6,2-1.2c0.4-0.4,0.8-1,1.1-2c0.4-1,0.6-1.8,0.8-2.5h1.9v14.7h-1.9
	c-0.1-0.7-0.4-1.6-0.8-2.6c-0.4-1-0.8-1.8-1.1-2.2c-0.5-0.6-1.2-1-1.9-1.2c-0.7-0.2-1.6-0.3-2.6-0.3h-3.6v10.1
	c0,1.1,0.1,1.9,0.2,2.5c0.2,0.6,0.5,1.1,0.9,1.4c0.4,0.3,1,0.5,1.7,0.6c0.7,0.1,1.7,0.1,2.9,0.1c0.6,0,1.3,0,2.1,0
	c0.8,0,1.5-0.1,2.1-0.1c0.7-0.1,1.3-0.2,1.9-0.4s1.1-0.4,1.4-0.7c0.8-0.8,1.7-2,2.7-3.7c1-1.7,1.6-2.9,2-3.7h1.8l-0.7,10.9h-32.9
	v-1.9c0.5,0,1.1-0.1,1.9-0.2c0.8-0.1,1.4-0.2,1.7-0.3c0.6-0.3,1-0.6,1.3-1c0.2-0.4,0.3-0.9,0.3-1.5V22.6c0-0.6-0.1-1.1-0.3-1.5
	c-0.2-0.4-0.6-0.7-1.3-1.1c-0.4-0.2-1-0.4-1.8-0.5c-0.8-0.2-1.4-0.3-1.8-0.3v-1.9H624V26.2z"/>
<path class="st0" d="M677.7,52.4h-19v-1.9c0.6,0,1.2-0.1,2.1-0.2c0.8-0.1,1.4-0.2,1.7-0.4c0.6-0.2,1-0.6,1.3-1
	c0.3-0.4,0.4-1,0.4-1.6V21l-12.1,30.9h-3.1c-0.1-0.5-0.5-1.6-1.1-3.2c-0.6-1.6-1.1-2.9-1.4-3.9l-8.9-24.1v21.4c0,2,0.1,3.6,0.4,4.7
	c0.3,1.1,0.7,1.8,1.3,2.3c0.4,0.3,1.2,0.7,2.2,1c1.1,0.3,1.8,0.5,2.2,0.5v1.9h-15.1v-1.9c0.4,0,1.1-0.2,2-0.3
	c0.9-0.2,1.7-0.5,2.3-0.9c0.7-0.5,1.1-1.2,1.3-2.3c0.2-1.1,0.3-2.7,0.3-4.7V24.8c0-1.1-0.1-1.9-0.4-2.6c-0.3-0.7-0.7-1.3-1.2-1.7
	c-0.7-0.5-1.3-0.8-2-1c-0.7-0.2-1.4-0.2-2.1-0.3v-1.9h16.2l8.7,23.1l7.3-18.8c0.2-0.7,0.5-1.5,0.7-2.5c0.2-1,0.4-1.6,0.4-1.9h15.6
	v1.9c-0.5,0-1.1,0.1-1.7,0.2c-0.6,0.1-1.1,0.2-1.7,0.4c-0.6,0.2-1.1,0.6-1.3,1c-0.2,0.5-0.3,1-0.3,1.5v24.9c0,0.6,0.1,1.1,0.3,1.5
	c0.2,0.4,0.6,0.8,1.3,1.1c0.3,0.1,0.9,0.3,1.6,0.4c0.8,0.1,1.3,0.2,1.7,0.3V52.4z"/>
<path class="st0" d="M721.5,19.2c-0.6,0.1-1.1,0.2-1.6,0.3c-0.5,0.1-1,0.4-1.4,0.6c-0.7,0.4-1.3,0.9-1.9,1.5
	c-0.6,0.6-1.1,1.3-1.6,2.1c-1.1,1.6-2.2,3.3-3.4,5.1c-1.2,1.8-2.5,3.9-3.8,6.1c-0.9,1.4-1.5,2.5-1.7,3.2c-0.2,0.8-0.3,2.1-0.3,3.9v5
	c0,0.6,0.1,1.1,0.3,1.6c0.2,0.4,0.6,0.8,1.3,1.1c0.3,0.1,0.9,0.3,1.8,0.5c0.9,0.2,1.6,0.3,2,0.3v1.9h-19.6v-1.9c0.5,0,1.1-0.1,2-0.2
	c0.9-0.1,1.5-0.2,1.8-0.3c0.6-0.3,1-0.6,1.2-1.1c0.2-0.4,0.3-1,0.3-1.6v-6.2c0-0.5,0-1,0-1.4c0-0.4-0.1-0.8-0.2-1
	c-0.1-0.3-0.3-0.7-0.6-1.2c-0.3-0.5-0.6-1.1-1.1-1.9c-1.3-2.2-2.5-4.3-3.7-6.3s-2.3-3.9-3.4-5.6c-0.6-0.9-1.1-1.6-1.7-2.2
	c-0.6-0.6-1.2-1-1.7-1.3c-0.4-0.2-1-0.4-1.6-0.6c-0.6-0.1-1.2-0.2-1.7-0.2v-1.9h20.1v1.9c-1.8,0-3.1,0.2-3.7,0.4
	c-0.6,0.2-1,0.5-1,0.9c0,0.2,0.1,0.5,0.4,1.1c0.2,0.5,0.7,1.4,1.3,2.5c0.6,1.1,1.4,2.5,2.5,4.4s2.4,4.1,3.9,6.6
	c3.1-5,5.3-8.4,6.5-10.4c1.2-2,1.8-3.2,1.8-3.6c0-0.6-0.3-1-1-1.3c-0.7-0.3-1.8-0.5-3.3-0.6v-1.9h13V19.2z"/>
<g>
	<rect x="435.4" y="0.7" class="st0" width="286.1" height="7"/>
</g>
<g>
	<rect x="410.2" y="64.6" class="st0" width="311.3" height="7"/>
</g>
<path class="st0" d="M39,30.6l20.1,27L87.7,53l-2.6,5.8c-1.6,3.6-4.9,6.2-8.8,6.9l-22.1,4.4c-2.1,0.4-4.3-0.4-5.6-2.2L29.8,42.2
	c-1.7-2.3-1.6-5.4,0.3-7.6l7.3-8.6L39,30.6z"/>
<path class="st0" d="M112.1,37.1L75.7,3.9c-1.4-1.3-3.2-1.9-5.1-1.7L18.2,6.7C16.5,6.8,15.8,8.8,17,10l8,7.7l14.4-2.8l23.2,4.7
	l1.1,1.5C44.1,18,34,21,30.1,22.7L60,51.6c1.7,1.7,4.2,2.3,6.5,1.7L111,41.7C113.1,41.2,113.7,38.5,112.1,37.1z"/>
<path class="st1" d="M66,20.1c0,0-23.3-10.1-40.2-4.6c-7,2.2-8.5,8-8.5,8s-0.5,4.3-8.1,5.8L0,31.1l5.7,3.9c0,0,17-2.2,16.7-10
	c-0.2-4.5,9.1-14.7,41.9-3.7L66,20.1z"/>
</svg>
