<svg id="Layer_3" data-name="Layer 3" xmlns="http://www.w3.org/2000/svg" viewBox="0 0 23.54 23.55"><defs><style>.cls-1{fill:#00a6cc;}</style></defs><title>tick</title><path class="cls-1" d="M1090.7,707.21a1,1,0,0,1-.72-0.31l-2.59-2.72a1,1,0,0,1,1.45-1.38l1.81,1.9,5-6.1a1,1,0,1,1,1.55,1.27l-5.72,7a1,1,0,0,1-.74.37h0Z" transform="translate(-1080.12 -691.42)"/><path class="cls-1" d="M1091.89,715a11.78,11.78,0,1,1,8.33-3.45,11.69,11.69,0,0,1-8.33,3.45h0Zm0-21.55a9.78,9.78,0,1,0,6.91,2.86,9.71,9.71,0,0,0-6.91-2.86h0Z" transform="translate(-1080.12 -691.42)"/></svg>