<svg id="Layer_3" data-name="Layer 3" xmlns="http://www.w3.org/2000/svg" viewBox="0 0 22.56 23.78"><defs><style>.cls-1{fill:#00a6cc;}</style></defs><title>user icon</title><path class="cls-1" d="M112.18,1272.05a55.88,55.88,0,0,1-8.83-.71,2.85,2.85,0,0,1-2.2-2.43q-0.13-1.23-.25-2.46a3.21,3.21,0,0,1,1.61-3,22.24,22.24,0,0,1,6-1.87l0-.23a2.61,2.61,0,0,1-1-1.67c0-.19,0-0.38-0.06-0.58a1.43,1.43,0,0,1-.86-1.18l-0.24-2.32a1.42,1.42,0,0,1,.31-1,1.44,1.44,0,0,1,.24-0.24l-0.08-.7a4.39,4.39,0,0,1,1.18-3.89,6.68,6.68,0,0,1,8.47,0,4.37,4.37,0,0,1,1.14,3.85l0,0.19-0.06.51a1.38,1.38,0,0,1,.24.23,1.43,1.43,0,0,1,.31,1.06l-0.24,2.32a1.42,1.42,0,0,1-.86,1.18l-0.07.61a2.56,2.56,0,0,1-1,1.64l0,0.23a22.1,22.1,0,0,1,5.93,1.85,3.23,3.23,0,0,1,1.65,3l-0.24,2.46a2.86,2.86,0,0,1-2.18,2.43,55.93,55.93,0,0,1-8.85.71h0Zm-3.7-14.92,0.14,0a1,1,0,0,1,.68.83c0.06,0.51.12,1,.17,1.52a1.16,1.16,0,0,0,.45.47,1,1,0,0,1,.46.71l0.23,1.62a1,1,0,0,1-.87,1.14,20.3,20.3,0,0,0-6.32,1.81,1.22,1.22,0,0,0-.51,1c0.08,0.82.16,1.64,0.24,2.45a0.87,0.87,0,0,0,.55.67,54,54,0,0,0,17,0,0.87,0.87,0,0,0,.53-0.66l0.24-2.45a1.24,1.24,0,0,0-.55-1,20.22,20.22,0,0,0-6.29-1.8,1,1,0,0,1-.87-1.13l0.23-1.63a1,1,0,0,1,.45-0.7,1.13,1.13,0,0,0,.45-0.47l0.18-1.53a1,1,0,0,1,.68-0.83l0.14,0L116,1256l-0.16-.09a1,1,0,0,1-.43-0.94v-0.1c0-.41.1-0.81,0.14-1.22l0-.2a2.49,2.49,0,0,0-.52-2.2,4.71,4.71,0,0,0-5.74,0,2.5,2.5,0,0,0-.55,2.24L109,1255a1,1,0,0,1-.43.94l-0.15.09,0.12,1.11h0Z" transform="translate(-100.9 -1248.27)"/></svg>