<svg id="Layer_3" data-name="Layer 3" xmlns="http://www.w3.org/2000/svg" viewBox="0 0 20.64 20.07"><defs><style>.cls-1{fill:#00a6cc;}</style></defs><title>voucher-icon</title><path class="cls-1" d="M13.64,22.63A2,2,0,0,1,12.23,22L2.69,12.5a2,2,0,0,1-.58-1.25L1.57,4.72a2,2,0,0,1,2-2.16H10.7a2,2,0,0,1,1.41.59l9.51,9.51a2,2,0,0,1,0,2.83L15.06,22A2,2,0,0,1,13.64,22.63ZM4.1,11.09l9.54,9.54,6.56-6.56L10.7,4.55H3.57L4.1,11.09l-0.71.71Z" transform="translate(-1.57 -2.55)"/><circle class="cls-1" cx="6.38" cy="6.16" r="2"/></svg>